0
SECTION
2
HEADER
9
$ACADVER
1
AC1009
0
ENDSEC
0
SECTION
2
TABLES
0
TABLE
2
LAYER
70
9
0
LAYER
2
CUT
70
0
62
7
6
CONTINUOUS
0
LAYER
2
MOUNT_HOLE
70
0
62
6
6
CONTINUOUS
0
LAYER
2
BLACK_POCKET
70
0
62
7
6
CONTINUOUS
0
LAYER
2
BOARD_TEXT
70
0
62
7
6
CONTINUOUS
0
LAYER
2
ORIENTATION
70
0
62
7
6
CONTINUOUS
0
LAYER
2
BLACK_FILL_PREVIEW
70
0
62
8
6
CONTINUOUS
0
LAYER
2
TAG_BOUNDARY
70
0
62
8
6
CONTINUOUS
0
LAYER
2
QUIET_ZONE
70
0
62
5
6
CONTINUOUS
0
LAYER
2
LABEL
70
0
62
3
6
CONTINUOUS
0
ENDTAB
0
ENDSEC
0
SECTION
2
ENTITIES
0
LINE
8
CUT
10
0
20
0
11
300
21
0
0
LINE
8
CUT
10
300
20
0
11
300
21
300
0
LINE
8
CUT
10
300
20
300
11
0
21
300
0
LINE
8
CUT
10
0
20
300
11
0
21
0
0
CIRCLE
8
MOUNT_HOLE
10
96
20
44
40
2.6
0
CIRCLE
8
MOUNT_HOLE
10
204
20
44
40
2.6
0
CIRCLE
8
MOUNT_HOLE
10
96
20
256
40
2.6
0
CIRCLE
8
MOUNT_HOLE
10
204
20
256
40
2.6
0
LINE
8
ORIENTATION
10
204
20
282
11
204
21
295
0
LINE
8
ORIENTATION
10
204
20
295
11
200
21
290
0
LINE
8
ORIENTATION
10
204
20
295
11
208
21
290
0
LINE
8
BOARD_TEXT
10
5
20
7.857143
11
5.642857
21
7.857143
0
LINE
8
BOARD_TEXT
10
5.642857
20
7.857143
11
5.642857
21
8.5
0
LINE
8
BOARD_TEXT
10
5.642857
20
8.5
11
5
21
8.5
0
LINE
8
BOARD_TEXT
10
5
20
8.5
11
5
21
7.857143
0
LINE
8
BOARD_TEXT
10
5.642857
20
7.857143
11
6.285714
21
7.857143
0
LINE
8
BOARD_TEXT
10
6.285714
20
7.857143
11
6.285714
21
8.5
0
LINE
8
BOARD_TEXT
10
6.285714
20
8.5
11
5.642857
21
8.5
0
LINE
8
BOARD_TEXT
10
5.642857
20
8.5
11
5.642857
21
7.857143
0
LINE
8
BOARD_TEXT
10
6.285714
20
7.857143
11
6.928571
21
7.857143
0
LINE
8
BOARD_TEXT
10
6.928571
20
7.857143
11
6.928571
21
8.5
0
LINE
8
BOARD_TEXT
10
6.928571
20
8.5
11
6.285714
21
8.5
0
LINE
8
BOARD_TEXT
10
6.285714
20
8.5
11
6.285714
21
7.857143
0
LINE
8
BOARD_TEXT
10
6.928571
20
7.857143
11
7.571429
21
7.857143
0
LINE
8
BOARD_TEXT
10
7.571429
20
7.857143
11
7.571429
21
8.5
0
LINE
8
BOARD_TEXT
10
7.571429
20
8.5
11
6.928571
21
8.5
0
LINE
8
BOARD_TEXT
10
6.928571
20
8.5
11
6.928571
21
7.857143
0
LINE
8
BOARD_TEXT
10
7.571429
20
7.857143
11
8.214286
21
7.857143
0
LINE
8
BOARD_TEXT
10
8.214286
20
7.857143
11
8.214286
21
8.5
0
LINE
8
BOARD_TEXT
10
8.214286
20
8.5
11
7.571429
21
8.5
0
LINE
8
BOARD_TEXT
10
7.571429
20
8.5
11
7.571429
21
7.857143
0
LINE
8
BOARD_TEXT
10
6.285714
20
7.214286
11
6.928571
21
7.214286
0
LINE
8
BOARD_TEXT
10
6.928571
20
7.214286
11
6.928571
21
7.857143
0
LINE
8
BOARD_TEXT
10
6.928571
20
7.857143
11
6.285714
21
7.857143
0
LINE
8
BOARD_TEXT
10
6.285714
20
7.857143
11
6.285714
21
7.214286
0
LINE
8
BOARD_TEXT
10
6.285714
20
6.571429
11
6.928571
21
6.571429
0
LINE
8
BOARD_TEXT
10
6.928571
20
6.571429
11
6.928571
21
7.214286
0
LINE
8
BOARD_TEXT
10
6.928571
20
7.214286
11
6.285714
21
7.214286
0
LINE
8
BOARD_TEXT
10
6.285714
20
7.214286
11
6.285714
21
6.571429
0
LINE
8
BOARD_TEXT
10
6.285714
20
5.928571
11
6.928571
21
5.928571
0
LINE
8
BOARD_TEXT
10
6.928571
20
5.928571
11
6.928571
21
6.571429
0
LINE
8
BOARD_TEXT
10
6.928571
20
6.571429
11
6.285714
21
6.571429
0
LINE
8
BOARD_TEXT
10
6.285714
20
6.571429
11
6.285714
21
5.928571
0
LINE
8
BOARD_TEXT
10
6.285714
20
5.285714
11
6.928571
21
5.285714
0
LINE
8
BOARD_TEXT
10
6.928571
20
5.285714
11
6.928571
21
5.928571
0
LINE
8
BOARD_TEXT
10
6.928571
20
5.928571
11
6.285714
21
5.928571
0
LINE
8
BOARD_TEXT
10
6.285714
20
5.928571
11
6.285714
21
5.285714
0
LINE
8
BOARD_TEXT
10
6.285714
20
4.642857
11
6.928571
21
4.642857
0
LINE
8
BOARD_TEXT
10
6.928571
20
4.642857
11
6.928571
21
5.285714
0
LINE
8
BOARD_TEXT
10
6.928571
20
5.285714
11
6.285714
21
5.285714
0
LINE
8
BOARD_TEXT
10
6.285714
20
5.285714
11
6.285714
21
4.642857
0
LINE
8
BOARD_TEXT
10
5
20
4
11
5.642857
21
4
0
LINE
8
BOARD_TEXT
10
5.642857
20
4
11
5.642857
21
4.642857
0
LINE
8
BOARD_TEXT
10
5.642857
20
4.642857
11
5
21
4.642857
0
LINE
8
BOARD_TEXT
10
5
20
4.642857
11
5
21
4
0
LINE
8
BOARD_TEXT
10
5.642857
20
4
11
6.285714
21
4
0
LINE
8
BOARD_TEXT
10
6.285714
20
4
11
6.285714
21
4.642857
0
LINE
8
BOARD_TEXT
10
6.285714
20
4.642857
11
5.642857
21
4.642857
0
LINE
8
BOARD_TEXT
10
5.642857
20
4.642857
11
5.642857
21
4
0
LINE
8
BOARD_TEXT
10
6.285714
20
4
11
6.928571
21
4
0
LINE
8
BOARD_TEXT
10
6.928571
20
4
11
6.928571
21
4.642857
0
LINE
8
BOARD_TEXT
10
6.928571
20
4.642857
11
6.285714
21
4.642857
0
LINE
8
BOARD_TEXT
10
6.285714
20
4.642857
11
6.285714
21
4
0
LINE
8
BOARD_TEXT
10
6.928571
20
4
11
7.571429
21
4
0
LINE
8
BOARD_TEXT
10
7.571429
20
4
11
7.571429
21
4.642857
0
LINE
8
BOARD_TEXT
10
7.571429
20
4.642857
11
6.928571
21
4.642857
0
LINE
8
BOARD_TEXT
10
6.928571
20
4.642857
11
6.928571
21
4
0
LINE
8
BOARD_TEXT
10
7.571429
20
4
11
8.214286
21
4
0
LINE
8
BOARD_TEXT
10
8.214286
20
4
11
8.214286
21
4.642857
0
LINE
8
BOARD_TEXT
10
8.214286
20
4.642857
11
7.571429
21
4.642857
0
LINE
8
BOARD_TEXT
10
7.571429
20
4.642857
11
7.571429
21
4
0
LINE
8
BOARD_TEXT
10
8.857143
20
7.857143
11
9.5
21
7.857143
0
LINE
8
BOARD_TEXT
10
9.5
20
7.857143
11
9.5
21
8.5
0
LINE
8
BOARD_TEXT
10
9.5
20
8.5
11
8.857143
21
8.5
0
LINE
8
BOARD_TEXT
10
8.857143
20
8.5
11
8.857143
21
7.857143
0
LINE
8
BOARD_TEXT
10
9.5
20
7.857143
11
10.142857
21
7.857143
0
LINE
8
BOARD_TEXT
10
10.142857
20
7.857143
11
10.142857
21
8.5
0
LINE
8
BOARD_TEXT
10
10.142857
20
8.5
11
9.5
21
8.5
0
LINE
8
BOARD_TEXT
10
9.5
20
8.5
11
9.5
21
7.857143
0
LINE
8
BOARD_TEXT
10
10.142857
20
7.857143
11
10.785714
21
7.857143
0
LINE
8
BOARD_TEXT
10
10.785714
20
7.857143
11
10.785714
21
8.5
0
LINE
8
BOARD_TEXT
10
10.785714
20
8.5
11
10.142857
21
8.5
0
LINE
8
BOARD_TEXT
10
10.142857
20
8.5
11
10.142857
21
7.857143
0
LINE
8
BOARD_TEXT
10
10.785714
20
7.857143
11
11.428571
21
7.857143
0
LINE
8
BOARD_TEXT
10
11.428571
20
7.857143
11
11.428571
21
8.5
0
LINE
8
BOARD_TEXT
10
11.428571
20
8.5
11
10.785714
21
8.5
0
LINE
8
BOARD_TEXT
10
10.785714
20
8.5
11
10.785714
21
7.857143
0
LINE
8
BOARD_TEXT
10
8.857143
20
7.214286
11
9.5
21
7.214286
0
LINE
8
BOARD_TEXT
10
9.5
20
7.214286
11
9.5
21
7.857143
0
LINE
8
BOARD_TEXT
10
9.5
20
7.857143
11
8.857143
21
7.857143
0
LINE
8
BOARD_TEXT
10
8.857143
20
7.857143
11
8.857143
21
7.214286
0
LINE
8
BOARD_TEXT
10
11.428571
20
7.214286
11
12.071429
21
7.214286
0
LINE
8
BOARD_TEXT
10
12.071429
20
7.214286
11
12.071429
21
7.857143
0
LINE
8
BOARD_TEXT
10
12.071429
20
7.857143
11
11.428571
21
7.857143
0
LINE
8
BOARD_TEXT
10
11.428571
20
7.857143
11
11.428571
21
7.214286
0
LINE
8
BOARD_TEXT
10
8.857143
20
6.571429
11
9.5
21
6.571429
0
LINE
8
BOARD_TEXT
10
9.5
20
6.571429
11
9.5
21
7.214286
0
LINE
8
BOARD_TEXT
10
9.5
20
7.214286
11
8.857143
21
7.214286
0
LINE
8
BOARD_TEXT
10
8.857143
20
7.214286
11
8.857143
21
6.571429
0
LINE
8
BOARD_TEXT
10
11.428571
20
6.571429
11
12.071429
21
6.571429
0
LINE
8
BOARD_TEXT
10
12.071429
20
6.571429
11
12.071429
21
7.214286
0
LINE
8
BOARD_TEXT
10
12.071429
20
7.214286
11
11.428571
21
7.214286
0
LINE
8
BOARD_TEXT
10
11.428571
20
7.214286
11
11.428571
21
6.571429
0
LINE
8
BOARD_TEXT
10
8.857143
20
5.928571
11
9.5
21
5.928571
0
LINE
8
BOARD_TEXT
10
9.5
20
5.928571
11
9.5
21
6.571429
0
LINE
8
BOARD_TEXT
10
9.5
20
6.571429
11
8.857143
21
6.571429
0
LINE
8
BOARD_TEXT
10
8.857143
20
6.571429
11
8.857143
21
5.928571
0
LINE
8
BOARD_TEXT
10
11.428571
20
5.928571
11
12.071429
21
5.928571
0
LINE
8
BOARD_TEXT
10
12.071429
20
5.928571
11
12.071429
21
6.571429
0
LINE
8
BOARD_TEXT
10
12.071429
20
6.571429
11
11.428571
21
6.571429
0
LINE
8
BOARD_TEXT
10
11.428571
20
6.571429
11
11.428571
21
5.928571
0
LINE
8
BOARD_TEXT
10
8.857143
20
5.285714
11
9.5
21
5.285714
0
LINE
8
BOARD_TEXT
10
9.5
20
5.285714
11
9.5
21
5.928571
0
LINE
8
BOARD_TEXT
10
9.5
20
5.928571
11
8.857143
21
5.928571
0
LINE
8
BOARD_TEXT
10
8.857143
20
5.928571
11
8.857143
21
5.285714
0
LINE
8
BOARD_TEXT
10
11.428571
20
5.285714
11
12.071429
21
5.285714
0
LINE
8
BOARD_TEXT
10
12.071429
20
5.285714
11
12.071429
21
5.928571
0
LINE
8
BOARD_TEXT
10
12.071429
20
5.928571
11
11.428571
21
5.928571
0
LINE
8
BOARD_TEXT
10
11.428571
20
5.928571
11
11.428571
21
5.285714
0
LINE
8
BOARD_TEXT
10
8.857143
20
4.642857
11
9.5
21
4.642857
0
LINE
8
BOARD_TEXT
10
9.5
20
4.642857
11
9.5
21
5.285714
0
LINE
8
BOARD_TEXT
10
9.5
20
5.285714
11
8.857143
21
5.285714
0
LINE
8
BOARD_TEXT
10
8.857143
20
5.285714
11
8.857143
21
4.642857
0
LINE
8
BOARD_TEXT
10
11.428571
20
4.642857
11
12.071429
21
4.642857
0
LINE
8
BOARD_TEXT
10
12.071429
20
4.642857
11
12.071429
21
5.285714
0
LINE
8
BOARD_TEXT
10
12.071429
20
5.285714
11
11.428571
21
5.285714
0
LINE
8
BOARD_TEXT
10
11.428571
20
5.285714
11
11.428571
21
4.642857
0
LINE
8
BOARD_TEXT
10
8.857143
20
4
11
9.5
21
4
0
LINE
8
BOARD_TEXT
10
9.5
20
4
11
9.5
21
4.642857
0
LINE
8
BOARD_TEXT
10
9.5
20
4.642857
11
8.857143
21
4.642857
0
LINE
8
BOARD_TEXT
10
8.857143
20
4.642857
11
8.857143
21
4
0
LINE
8
BOARD_TEXT
10
9.5
20
4
11
10.142857
21
4
0
LINE
8
BOARD_TEXT
10
10.142857
20
4
11
10.142857
21
4.642857
0
LINE
8
BOARD_TEXT
10
10.142857
20
4.642857
11
9.5
21
4.642857
0
LINE
8
BOARD_TEXT
10
9.5
20
4.642857
11
9.5
21
4
0
LINE
8
BOARD_TEXT
10
10.142857
20
4
11
10.785714
21
4
0
LINE
8
BOARD_TEXT
10
10.785714
20
4
11
10.785714
21
4.642857
0
LINE
8
BOARD_TEXT
10
10.785714
20
4.642857
11
10.142857
21
4.642857
0
LINE
8
BOARD_TEXT
10
10.142857
20
4.642857
11
10.142857
21
4
0
LINE
8
BOARD_TEXT
10
10.785714
20
4
11
11.428571
21
4
0
LINE
8
BOARD_TEXT
10
11.428571
20
4
11
11.428571
21
4.642857
0
LINE
8
BOARD_TEXT
10
11.428571
20
4.642857
11
10.785714
21
4.642857
0
LINE
8
BOARD_TEXT
10
10.785714
20
4.642857
11
10.785714
21
4
0
LINE
8
BOARD_TEXT
10
14.642857
20
6.571429
11
15.285714
21
6.571429
0
LINE
8
BOARD_TEXT
10
15.285714
20
6.571429
11
15.285714
21
7.214286
0
LINE
8
BOARD_TEXT
10
15.285714
20
7.214286
11
14.642857
21
7.214286
0
LINE
8
BOARD_TEXT
10
14.642857
20
7.214286
11
14.642857
21
6.571429
0
LINE
8
BOARD_TEXT
10
15.285714
20
6.571429
11
15.928571
21
6.571429
0
LINE
8
BOARD_TEXT
10
15.928571
20
6.571429
11
15.928571
21
7.214286
0
LINE
8
BOARD_TEXT
10
15.928571
20
7.214286
11
15.285714
21
7.214286
0
LINE
8
BOARD_TEXT
10
15.285714
20
7.214286
11
15.285714
21
6.571429
0
LINE
8
BOARD_TEXT
10
15.928571
20
6.571429
11
16.571429
21
6.571429
0
LINE
8
BOARD_TEXT
10
16.571429
20
6.571429
11
16.571429
21
7.214286
0
LINE
8
BOARD_TEXT
10
16.571429
20
7.214286
11
15.928571
21
7.214286
0
LINE
8
BOARD_TEXT
10
15.928571
20
7.214286
11
15.928571
21
6.571429
0
LINE
8
BOARD_TEXT
10
16.571429
20
6.571429
11
17.214286
21
6.571429
0
LINE
8
BOARD_TEXT
10
17.214286
20
6.571429
11
17.214286
21
7.214286
0
LINE
8
BOARD_TEXT
10
17.214286
20
7.214286
11
16.571429
21
7.214286
0
LINE
8
BOARD_TEXT
10
16.571429
20
7.214286
11
16.571429
21
6.571429
0
LINE
8
BOARD_TEXT
10
17.214286
20
6.571429
11
17.857143
21
6.571429
0
LINE
8
BOARD_TEXT
10
17.857143
20
6.571429
11
17.857143
21
7.214286
0
LINE
8
BOARD_TEXT
10
17.857143
20
7.214286
11
17.214286
21
7.214286
0
LINE
8
BOARD_TEXT
10
17.214286
20
7.214286
11
17.214286
21
6.571429
0
LINE
8
BOARD_TEXT
10
14.642857
20
5.285714
11
15.285714
21
5.285714
0
LINE
8
BOARD_TEXT
10
15.285714
20
5.285714
11
15.285714
21
5.928571
0
LINE
8
BOARD_TEXT
10
15.285714
20
5.928571
11
14.642857
21
5.928571
0
LINE
8
BOARD_TEXT
10
14.642857
20
5.928571
11
14.642857
21
5.285714
0
LINE
8
BOARD_TEXT
10
15.285714
20
5.285714
11
15.928571
21
5.285714
0
LINE
8
BOARD_TEXT
10
15.928571
20
5.285714
11
15.928571
21
5.928571
0
LINE
8
BOARD_TEXT
10
15.928571
20
5.928571
11
15.285714
21
5.928571
0
LINE
8
BOARD_TEXT
10
15.285714
20
5.928571
11
15.285714
21
5.285714
0
LINE
8
BOARD_TEXT
10
15.928571
20
5.285714
11
16.571429
21
5.285714
0
LINE
8
BOARD_TEXT
10
16.571429
20
5.285714
11
16.571429
21
5.928571
0
LINE
8
BOARD_TEXT
10
16.571429
20
5.928571
11
15.928571
21
5.928571
0
LINE
8
BOARD_TEXT
10
15.928571
20
5.928571
11
15.928571
21
5.285714
0
LINE
8
BOARD_TEXT
10
16.571429
20
5.285714
11
17.214286
21
5.285714
0
LINE
8
BOARD_TEXT
10
17.214286
20
5.285714
11
17.214286
21
5.928571
0
LINE
8
BOARD_TEXT
10
17.214286
20
5.928571
11
16.571429
21
5.928571
0
LINE
8
BOARD_TEXT
10
16.571429
20
5.928571
11
16.571429
21
5.285714
0
LINE
8
BOARD_TEXT
10
17.214286
20
5.285714
11
17.857143
21
5.285714
0
LINE
8
BOARD_TEXT
10
17.857143
20
5.285714
11
17.857143
21
5.928571
0
LINE
8
BOARD_TEXT
10
17.857143
20
5.928571
11
17.214286
21
5.928571
0
LINE
8
BOARD_TEXT
10
17.214286
20
5.928571
11
17.214286
21
5.285714
0
LINE
8
BOARD_TEXT
10
21.071429
20
7.857143
11
21.714286
21
7.857143
0
LINE
8
BOARD_TEXT
10
21.714286
20
7.857143
11
21.714286
21
8.5
0
LINE
8
BOARD_TEXT
10
21.714286
20
8.5
11
21.071429
21
8.5
0
LINE
8
BOARD_TEXT
10
21.071429
20
8.5
11
21.071429
21
7.857143
0
LINE
8
BOARD_TEXT
10
21.714286
20
7.857143
11
22.357143
21
7.857143
0
LINE
8
BOARD_TEXT
10
22.357143
20
7.857143
11
22.357143
21
8.5
0
LINE
8
BOARD_TEXT
10
22.357143
20
8.5
11
21.714286
21
8.5
0
LINE
8
BOARD_TEXT
10
21.714286
20
8.5
11
21.714286
21
7.857143
0
LINE
8
BOARD_TEXT
10
22.357143
20
7.857143
11
23
21
7.857143
0
LINE
8
BOARD_TEXT
10
23
20
7.857143
11
23
21
8.5
0
LINE
8
BOARD_TEXT
10
23
20
8.5
11
22.357143
21
8.5
0
LINE
8
BOARD_TEXT
10
22.357143
20
8.5
11
22.357143
21
7.857143
0
LINE
8
BOARD_TEXT
10
20.428571
20
7.214286
11
21.071429
21
7.214286
0
LINE
8
BOARD_TEXT
10
21.071429
20
7.214286
11
21.071429
21
7.857143
0
LINE
8
BOARD_TEXT
10
21.071429
20
7.857143
11
20.428571
21
7.857143
0
LINE
8
BOARD_TEXT
10
20.428571
20
7.857143
11
20.428571
21
7.214286
0
LINE
8
BOARD_TEXT
10
23
20
7.214286
11
23.642857
21
7.214286
0
LINE
8
BOARD_TEXT
10
23.642857
20
7.214286
11
23.642857
21
7.857143
0
LINE
8
BOARD_TEXT
10
23.642857
20
7.857143
11
23
21
7.857143
0
LINE
8
BOARD_TEXT
10
23
20
7.857143
11
23
21
7.214286
0
LINE
8
BOARD_TEXT
10
23
20
6.571429
11
23.642857
21
6.571429
0
LINE
8
BOARD_TEXT
10
23.642857
20
6.571429
11
23.642857
21
7.214286
0
LINE
8
BOARD_TEXT
10
23.642857
20
7.214286
11
23
21
7.214286
0
LINE
8
BOARD_TEXT
10
23
20
7.214286
11
23
21
6.571429
0
LINE
8
BOARD_TEXT
10
22.357143
20
5.928571
11
23
21
5.928571
0
LINE
8
BOARD_TEXT
10
23
20
5.928571
11
23
21
6.571429
0
LINE
8
BOARD_TEXT
10
23
20
6.571429
11
22.357143
21
6.571429
0
LINE
8
BOARD_TEXT
10
22.357143
20
6.571429
11
22.357143
21
5.928571
0
LINE
8
BOARD_TEXT
10
21.714286
20
5.285714
11
22.357143
21
5.285714
0
LINE
8
BOARD_TEXT
10
22.357143
20
5.285714
11
22.357143
21
5.928571
0
LINE
8
BOARD_TEXT
10
22.357143
20
5.928571
11
21.714286
21
5.928571
0
LINE
8
BOARD_TEXT
10
21.714286
20
5.928571
11
21.714286
21
5.285714
0
LINE
8
BOARD_TEXT
10
21.071429
20
4.642857
11
21.714286
21
4.642857
0
LINE
8
BOARD_TEXT
10
21.714286
20
4.642857
11
21.714286
21
5.285714
0
LINE
8
BOARD_TEXT
10
21.714286
20
5.285714
11
21.071429
21
5.285714
0
LINE
8
BOARD_TEXT
10
21.071429
20
5.285714
11
21.071429
21
4.642857
0
LINE
8
BOARD_TEXT
10
20.428571
20
4
11
21.071429
21
4
0
LINE
8
BOARD_TEXT
10
21.071429
20
4
11
21.071429
21
4.642857
0
LINE
8
BOARD_TEXT
10
21.071429
20
4.642857
11
20.428571
21
4.642857
0
LINE
8
BOARD_TEXT
10
20.428571
20
4.642857
11
20.428571
21
4
0
LINE
8
BOARD_TEXT
10
21.071429
20
4
11
21.714286
21
4
0
LINE
8
BOARD_TEXT
10
21.714286
20
4
11
21.714286
21
4.642857
0
LINE
8
BOARD_TEXT
10
21.714286
20
4.642857
11
21.071429
21
4.642857
0
LINE
8
BOARD_TEXT
10
21.071429
20
4.642857
11
21.071429
21
4
0
LINE
8
BOARD_TEXT
10
21.714286
20
4
11
22.357143
21
4
0
LINE
8
BOARD_TEXT
10
22.357143
20
4
11
22.357143
21
4.642857
0
LINE
8
BOARD_TEXT
10
22.357143
20
4.642857
11
21.714286
21
4.642857
0
LINE
8
BOARD_TEXT
10
21.714286
20
4.642857
11
21.714286
21
4
0
LINE
8
BOARD_TEXT
10
22.357143
20
4
11
23
21
4
0
LINE
8
BOARD_TEXT
10
23
20
4
11
23
21
4.642857
0
LINE
8
BOARD_TEXT
10
23
20
4.642857
11
22.357143
21
4.642857
0
LINE
8
BOARD_TEXT
10
22.357143
20
4.642857
11
22.357143
21
4
0
LINE
8
BOARD_TEXT
10
23
20
4
11
23.642857
21
4
0
LINE
8
BOARD_TEXT
10
23.642857
20
4
11
23.642857
21
4.642857
0
LINE
8
BOARD_TEXT
10
23.642857
20
4.642857
11
23
21
4.642857
0
LINE
8
BOARD_TEXT
10
23
20
4.642857
11
23
21
4
0
LINE
8
BOARD_TEXT
10
24.928571
20
7.857143
11
25.571429
21
7.857143
0
LINE
8
BOARD_TEXT
10
25.571429
20
7.857143
11
25.571429
21
8.5
0
LINE
8
BOARD_TEXT
10
25.571429
20
8.5
11
24.928571
21
8.5
0
LINE
8
BOARD_TEXT
10
24.928571
20
8.5
11
24.928571
21
7.857143
0
LINE
8
BOARD_TEXT
10
25.571429
20
7.857143
11
26.214286
21
7.857143
0
LINE
8
BOARD_TEXT
10
26.214286
20
7.857143
11
26.214286
21
8.5
0
LINE
8
BOARD_TEXT
10
26.214286
20
8.5
11
25.571429
21
8.5
0
LINE
8
BOARD_TEXT
10
25.571429
20
8.5
11
25.571429
21
7.857143
0
LINE
8
BOARD_TEXT
10
26.214286
20
7.857143
11
26.857143
21
7.857143
0
LINE
8
BOARD_TEXT
10
26.857143
20
7.857143
11
26.857143
21
8.5
0
LINE
8
BOARD_TEXT
10
26.857143
20
8.5
11
26.214286
21
8.5
0
LINE
8
BOARD_TEXT
10
26.214286
20
8.5
11
26.214286
21
7.857143
0
LINE
8
BOARD_TEXT
10
24.285714
20
7.214286
11
24.928571
21
7.214286
0
LINE
8
BOARD_TEXT
10
24.928571
20
7.214286
11
24.928571
21
7.857143
0
LINE
8
BOARD_TEXT
10
24.928571
20
7.857143
11
24.285714
21
7.857143
0
LINE
8
BOARD_TEXT
10
24.285714
20
7.857143
11
24.285714
21
7.214286
0
LINE
8
BOARD_TEXT
10
26.857143
20
7.214286
11
27.5
21
7.214286
0
LINE
8
BOARD_TEXT
10
27.5
20
7.214286
11
27.5
21
7.857143
0
LINE
8
BOARD_TEXT
10
27.5
20
7.857143
11
26.857143
21
7.857143
0
LINE
8
BOARD_TEXT
10
26.857143
20
7.857143
11
26.857143
21
7.214286
0
LINE
8
BOARD_TEXT
10
24.285714
20
6.571429
11
24.928571
21
6.571429
0
LINE
8
BOARD_TEXT
10
24.928571
20
6.571429
11
24.928571
21
7.214286
0
LINE
8
BOARD_TEXT
10
24.928571
20
7.214286
11
24.285714
21
7.214286
0
LINE
8
BOARD_TEXT
10
24.285714
20
7.214286
11
24.285714
21
6.571429
0
LINE
8
BOARD_TEXT
10
26.857143
20
6.571429
11
27.5
21
6.571429
0
LINE
8
BOARD_TEXT
10
27.5
20
6.571429
11
27.5
21
7.214286
0
LINE
8
BOARD_TEXT
10
27.5
20
7.214286
11
26.857143
21
7.214286
0
LINE
8
BOARD_TEXT
10
26.857143
20
7.214286
11
26.857143
21
6.571429
0
LINE
8
BOARD_TEXT
10
24.928571
20
5.928571
11
25.571429
21
5.928571
0
LINE
8
BOARD_TEXT
10
25.571429
20
5.928571
11
25.571429
21
6.571429
0
LINE
8
BOARD_TEXT
10
25.571429
20
6.571429
11
24.928571
21
6.571429
0
LINE
8
BOARD_TEXT
10
24.928571
20
6.571429
11
24.928571
21
5.928571
0
LINE
8
BOARD_TEXT
10
25.571429
20
5.928571
11
26.214286
21
5.928571
0
LINE
8
BOARD_TEXT
10
26.214286
20
5.928571
11
26.214286
21
6.571429
0
LINE
8
BOARD_TEXT
10
26.214286
20
6.571429
11
25.571429
21
6.571429
0
LINE
8
BOARD_TEXT
10
25.571429
20
6.571429
11
25.571429
21
5.928571
0
LINE
8
BOARD_TEXT
10
26.214286
20
5.928571
11
26.857143
21
5.928571
0
LINE
8
BOARD_TEXT
10
26.857143
20
5.928571
11
26.857143
21
6.571429
0
LINE
8
BOARD_TEXT
10
26.857143
20
6.571429
11
26.214286
21
6.571429
0
LINE
8
BOARD_TEXT
10
26.214286
20
6.571429
11
26.214286
21
5.928571
0
LINE
8
BOARD_TEXT
10
24.285714
20
5.285714
11
24.928571
21
5.285714
0
LINE
8
BOARD_TEXT
10
24.928571
20
5.285714
11
24.928571
21
5.928571
0
LINE
8
BOARD_TEXT
10
24.928571
20
5.928571
11
24.285714
21
5.928571
0
LINE
8
BOARD_TEXT
10
24.285714
20
5.928571
11
24.285714
21
5.285714
0
LINE
8
BOARD_TEXT
10
26.857143
20
5.285714
11
27.5
21
5.285714
0
LINE
8
BOARD_TEXT
10
27.5
20
5.285714
11
27.5
21
5.928571
0
LINE
8
BOARD_TEXT
10
27.5
20
5.928571
11
26.857143
21
5.928571
0
LINE
8
BOARD_TEXT
10
26.857143
20
5.928571
11
26.857143
21
5.285714
0
LINE
8
BOARD_TEXT
10
24.285714
20
4.642857
11
24.928571
21
4.642857
0
LINE
8
BOARD_TEXT
10
24.928571
20
4.642857
11
24.928571
21
5.285714
0
LINE
8
BOARD_TEXT
10
24.928571
20
5.285714
11
24.285714
21
5.285714
0
LINE
8
BOARD_TEXT
10
24.285714
20
5.285714
11
24.285714
21
4.642857
0
LINE
8
BOARD_TEXT
10
26.857143
20
4.642857
11
27.5
21
4.642857
0
LINE
8
BOARD_TEXT
10
27.5
20
4.642857
11
27.5
21
5.285714
0
LINE
8
BOARD_TEXT
10
27.5
20
5.285714
11
26.857143
21
5.285714
0
LINE
8
BOARD_TEXT
10
26.857143
20
5.285714
11
26.857143
21
4.642857
0
LINE
8
BOARD_TEXT
10
24.928571
20
4
11
25.571429
21
4
0
LINE
8
BOARD_TEXT
10
25.571429
20
4
11
25.571429
21
4.642857
0
LINE
8
BOARD_TEXT
10
25.571429
20
4.642857
11
24.928571
21
4.642857
0
LINE
8
BOARD_TEXT
10
24.928571
20
4.642857
11
24.928571
21
4
0
LINE
8
BOARD_TEXT
10
25.571429
20
4
11
26.214286
21
4
0
LINE
8
BOARD_TEXT
10
26.214286
20
4
11
26.214286
21
4.642857
0
LINE
8
BOARD_TEXT
10
26.214286
20
4.642857
11
25.571429
21
4.642857
0
LINE
8
BOARD_TEXT
10
25.571429
20
4.642857
11
25.571429
21
4
0
LINE
8
BOARD_TEXT
10
26.214286
20
4
11
26.857143
21
4
0
LINE
8
BOARD_TEXT
10
26.857143
20
4
11
26.857143
21
4.642857
0
LINE
8
BOARD_TEXT
10
26.857143
20
4.642857
11
26.214286
21
4.642857
0
LINE
8
BOARD_TEXT
10
26.214286
20
4.642857
11
26.214286
21
4
0
LINE
8
BOARD_TEXT
10
28.785714
20
7.857143
11
29.428571
21
7.857143
0
LINE
8
BOARD_TEXT
10
29.428571
20
7.857143
11
29.428571
21
8.5
0
LINE
8
BOARD_TEXT
10
29.428571
20
8.5
11
28.785714
21
8.5
0
LINE
8
BOARD_TEXT
10
28.785714
20
8.5
11
28.785714
21
7.857143
0
LINE
8
BOARD_TEXT
10
29.428571
20
7.857143
11
30.071429
21
7.857143
0
LINE
8
BOARD_TEXT
10
30.071429
20
7.857143
11
30.071429
21
8.5
0
LINE
8
BOARD_TEXT
10
30.071429
20
8.5
11
29.428571
21
8.5
0
LINE
8
BOARD_TEXT
10
29.428571
20
8.5
11
29.428571
21
7.857143
0
LINE
8
BOARD_TEXT
10
30.071429
20
7.857143
11
30.714286
21
7.857143
0
LINE
8
BOARD_TEXT
10
30.714286
20
7.857143
11
30.714286
21
8.5
0
LINE
8
BOARD_TEXT
10
30.714286
20
8.5
11
30.071429
21
8.5
0
LINE
8
BOARD_TEXT
10
30.071429
20
8.5
11
30.071429
21
7.857143
0
LINE
8
BOARD_TEXT
10
28.142857
20
7.214286
11
28.785714
21
7.214286
0
LINE
8
BOARD_TEXT
10
28.785714
20
7.214286
11
28.785714
21
7.857143
0
LINE
8
BOARD_TEXT
10
28.785714
20
7.857143
11
28.142857
21
7.857143
0
LINE
8
BOARD_TEXT
10
28.142857
20
7.857143
11
28.142857
21
7.214286
0
LINE
8
BOARD_TEXT
10
30.714286
20
7.214286
11
31.357143
21
7.214286
0
LINE
8
BOARD_TEXT
10
31.357143
20
7.214286
11
31.357143
21
7.857143
0
LINE
8
BOARD_TEXT
10
31.357143
20
7.857143
11
30.714286
21
7.857143
0
LINE
8
BOARD_TEXT
10
30.714286
20
7.857143
11
30.714286
21
7.214286
0
LINE
8
BOARD_TEXT
10
28.142857
20
6.571429
11
28.785714
21
6.571429
0
LINE
8
BOARD_TEXT
10
28.785714
20
6.571429
11
28.785714
21
7.214286
0
LINE
8
BOARD_TEXT
10
28.785714
20
7.214286
11
28.142857
21
7.214286
0
LINE
8
BOARD_TEXT
10
28.142857
20
7.214286
11
28.142857
21
6.571429
0
LINE
8
BOARD_TEXT
10
30.714286
20
6.571429
11
31.357143
21
6.571429
0
LINE
8
BOARD_TEXT
10
31.357143
20
6.571429
11
31.357143
21
7.214286
0
LINE
8
BOARD_TEXT
10
31.357143
20
7.214286
11
30.714286
21
7.214286
0
LINE
8
BOARD_TEXT
10
30.714286
20
7.214286
11
30.714286
21
6.571429
0
LINE
8
BOARD_TEXT
10
28.785714
20
5.928571
11
29.428571
21
5.928571
0
LINE
8
BOARD_TEXT
10
29.428571
20
5.928571
11
29.428571
21
6.571429
0
LINE
8
BOARD_TEXT
10
29.428571
20
6.571429
11
28.785714
21
6.571429
0
LINE
8
BOARD_TEXT
10
28.785714
20
6.571429
11
28.785714
21
5.928571
0
LINE
8
BOARD_TEXT
10
29.428571
20
5.928571
11
30.071429
21
5.928571
0
LINE
8
BOARD_TEXT
10
30.071429
20
5.928571
11
30.071429
21
6.571429
0
LINE
8
BOARD_TEXT
10
30.071429
20
6.571429
11
29.428571
21
6.571429
0
LINE
8
BOARD_TEXT
10
29.428571
20
6.571429
11
29.428571
21
5.928571
0
LINE
8
BOARD_TEXT
10
30.071429
20
5.928571
11
30.714286
21
5.928571
0
LINE
8
BOARD_TEXT
10
30.714286
20
5.928571
11
30.714286
21
6.571429
0
LINE
8
BOARD_TEXT
10
30.714286
20
6.571429
11
30.071429
21
6.571429
0
LINE
8
BOARD_TEXT
10
30.071429
20
6.571429
11
30.071429
21
5.928571
0
LINE
8
BOARD_TEXT
10
30.714286
20
5.928571
11
31.357143
21
5.928571
0
LINE
8
BOARD_TEXT
10
31.357143
20
5.928571
11
31.357143
21
6.571429
0
LINE
8
BOARD_TEXT
10
31.357143
20
6.571429
11
30.714286
21
6.571429
0
LINE
8
BOARD_TEXT
10
30.714286
20
6.571429
11
30.714286
21
5.928571
0
LINE
8
BOARD_TEXT
10
30.714286
20
5.285714
11
31.357143
21
5.285714
0
LINE
8
BOARD_TEXT
10
31.357143
20
5.285714
11
31.357143
21
5.928571
0
LINE
8
BOARD_TEXT
10
31.357143
20
5.928571
11
30.714286
21
5.928571
0
LINE
8
BOARD_TEXT
10
30.714286
20
5.928571
11
30.714286
21
5.285714
0
LINE
8
BOARD_TEXT
10
30.714286
20
4.642857
11
31.357143
21
4.642857
0
LINE
8
BOARD_TEXT
10
31.357143
20
4.642857
11
31.357143
21
5.285714
0
LINE
8
BOARD_TEXT
10
31.357143
20
5.285714
11
30.714286
21
5.285714
0
LINE
8
BOARD_TEXT
10
30.714286
20
5.285714
11
30.714286
21
4.642857
0
LINE
8
BOARD_TEXT
10
28.785714
20
4
11
29.428571
21
4
0
LINE
8
BOARD_TEXT
10
29.428571
20
4
11
29.428571
21
4.642857
0
LINE
8
BOARD_TEXT
10
29.428571
20
4.642857
11
28.785714
21
4.642857
0
LINE
8
BOARD_TEXT
10
28.785714
20
4.642857
11
28.785714
21
4
0
LINE
8
BOARD_TEXT
10
29.428571
20
4
11
30.071429
21
4
0
LINE
8
BOARD_TEXT
10
30.071429
20
4
11
30.071429
21
4.642857
0
LINE
8
BOARD_TEXT
10
30.071429
20
4.642857
11
29.428571
21
4.642857
0
LINE
8
BOARD_TEXT
10
29.428571
20
4.642857
11
29.428571
21
4
0
LINE
8
BOARD_TEXT
10
30.071429
20
4
11
30.714286
21
4
0
LINE
8
BOARD_TEXT
10
30.714286
20
4
11
30.714286
21
4.642857
0
LINE
8
BOARD_TEXT
10
30.714286
20
4.642857
11
30.071429
21
4.642857
0
LINE
8
BOARD_TEXT
10
30.071429
20
4.642857
11
30.071429
21
4
0
LINE
8
BLACK_POCKET
10
86
20
198
11
102
21
198
0
LINE
8
BLACK_POCKET
10
102
20
198
11
102
21
214
0
LINE
8
BLACK_POCKET
10
102
20
214
11
86
21
214
0
LINE
8
BLACK_POCKET
10
86
20
214
11
86
21
198
0
LINE
8
BLACK_POCKET
10
102
20
198
11
118
21
198
0
LINE
8
BLACK_POCKET
10
118
20
198
11
118
21
214
0
LINE
8
BLACK_POCKET
10
118
20
214
11
102
21
214
0
LINE
8
BLACK_POCKET
10
102
20
214
11
102
21
198
0
LINE
8
BLACK_POCKET
10
118
20
198
11
134
21
198
0
LINE
8
BLACK_POCKET
10
134
20
198
11
134
21
214
0
LINE
8
BLACK_POCKET
10
134
20
214
11
118
21
214
0
LINE
8
BLACK_POCKET
10
118
20
214
11
118
21
198
0
LINE
8
BLACK_POCKET
10
134
20
198
11
150
21
198
0
LINE
8
BLACK_POCKET
10
150
20
198
11
150
21
214
0
LINE
8
BLACK_POCKET
10
150
20
214
11
134
21
214
0
LINE
8
BLACK_POCKET
10
134
20
214
11
134
21
198
0
LINE
8
BLACK_POCKET
10
150
20
198
11
166
21
198
0
LINE
8
BLACK_POCKET
10
166
20
198
11
166
21
214
0
LINE
8
BLACK_POCKET
10
166
20
214
11
150
21
214
0
LINE
8
BLACK_POCKET
10
150
20
214
11
150
21
198
0
LINE
8
BLACK_POCKET
10
166
20
198
11
182
21
198
0
LINE
8
BLACK_POCKET
10
182
20
198
11
182
21
214
0
LINE
8
BLACK_POCKET
10
182
20
214
11
166
21
214
0
LINE
8
BLACK_POCKET
10
166
20
214
11
166
21
198
0
LINE
8
BLACK_POCKET
10
182
20
198
11
198
21
198
0
LINE
8
BLACK_POCKET
10
198
20
198
11
198
21
214
0
LINE
8
BLACK_POCKET
10
198
20
214
11
182
21
214
0
LINE
8
BLACK_POCKET
10
182
20
214
11
182
21
198
0
LINE
8
BLACK_POCKET
10
198
20
198
11
214
21
198
0
LINE
8
BLACK_POCKET
10
214
20
198
11
214
21
214
0
LINE
8
BLACK_POCKET
10
214
20
214
11
198
21
214
0
LINE
8
BLACK_POCKET
10
198
20
214
11
198
21
198
0
LINE
8
BLACK_POCKET
10
86
20
182
11
102
21
182
0
LINE
8
BLACK_POCKET
10
102
20
182
11
102
21
198
0
LINE
8
BLACK_POCKET
10
102
20
198
11
86
21
198
0
LINE
8
BLACK_POCKET
10
86
20
198
11
86
21
182
0
LINE
8
BLACK_POCKET
10
102
20
182
11
118
21
182
0
LINE
8
BLACK_POCKET
10
118
20
182
11
118
21
198
0
LINE
8
BLACK_POCKET
10
118
20
198
11
102
21
198
0
LINE
8
BLACK_POCKET
10
102
20
198
11
102
21
182
0
LINE
8
BLACK_POCKET
10
118
20
182
11
134
21
182
0
LINE
8
BLACK_POCKET
10
134
20
182
11
134
21
198
0
LINE
8
BLACK_POCKET
10
134
20
198
11
118
21
198
0
LINE
8
BLACK_POCKET
10
118
20
198
11
118
21
182
0
LINE
8
BLACK_POCKET
10
150
20
182
11
166
21
182
0
LINE
8
BLACK_POCKET
10
166
20
182
11
166
21
198
0
LINE
8
BLACK_POCKET
10
166
20
198
11
150
21
198
0
LINE
8
BLACK_POCKET
10
150
20
198
11
150
21
182
0
LINE
8
BLACK_POCKET
10
166
20
182
11
182
21
182
0
LINE
8
BLACK_POCKET
10
182
20
182
11
182
21
198
0
LINE
8
BLACK_POCKET
10
182
20
198
11
166
21
198
0
LINE
8
BLACK_POCKET
10
166
20
198
11
166
21
182
0
LINE
8
BLACK_POCKET
10
182
20
182
11
198
21
182
0
LINE
8
BLACK_POCKET
10
198
20
182
11
198
21
198
0
LINE
8
BLACK_POCKET
10
198
20
198
11
182
21
198
0
LINE
8
BLACK_POCKET
10
182
20
198
11
182
21
182
0
LINE
8
BLACK_POCKET
10
198
20
182
11
214
21
182
0
LINE
8
BLACK_POCKET
10
214
20
182
11
214
21
198
0
LINE
8
BLACK_POCKET
10
214
20
198
11
198
21
198
0
LINE
8
BLACK_POCKET
10
198
20
198
11
198
21
182
0
LINE
8
BLACK_POCKET
10
86
20
166
11
102
21
166
0
LINE
8
BLACK_POCKET
10
102
20
166
11
102
21
182
0
LINE
8
BLACK_POCKET
10
102
20
182
11
86
21
182
0
LINE
8
BLACK_POCKET
10
86
20
182
11
86
21
166
0
LINE
8
BLACK_POCKET
10
102
20
166
11
118
21
166
0
LINE
8
BLACK_POCKET
10
118
20
166
11
118
21
182
0
LINE
8
BLACK_POCKET
10
118
20
182
11
102
21
182
0
LINE
8
BLACK_POCKET
10
102
20
182
11
102
21
166
0
LINE
8
BLACK_POCKET
10
118
20
166
11
134
21
166
0
LINE
8
BLACK_POCKET
10
134
20
166
11
134
21
182
0
LINE
8
BLACK_POCKET
10
134
20
182
11
118
21
182
0
LINE
8
BLACK_POCKET
10
118
20
182
11
118
21
166
0
LINE
8
BLACK_POCKET
10
150
20
166
11
166
21
166
0
LINE
8
BLACK_POCKET
10
166
20
166
11
166
21
182
0
LINE
8
BLACK_POCKET
10
166
20
182
11
150
21
182
0
LINE
8
BLACK_POCKET
10
150
20
182
11
150
21
166
0
LINE
8
BLACK_POCKET
10
182
20
166
11
198
21
166
0
LINE
8
BLACK_POCKET
10
198
20
166
11
198
21
182
0
LINE
8
BLACK_POCKET
10
198
20
182
11
182
21
182
0
LINE
8
BLACK_POCKET
10
182
20
182
11
182
21
166
0
LINE
8
BLACK_POCKET
10
198
20
166
11
214
21
166
0
LINE
8
BLACK_POCKET
10
214
20
166
11
214
21
182
0
LINE
8
BLACK_POCKET
10
214
20
182
11
198
21
182
0
LINE
8
BLACK_POCKET
10
198
20
182
11
198
21
166
0
LINE
8
BLACK_POCKET
10
86
20
150
11
102
21
150
0
LINE
8
BLACK_POCKET
10
102
20
150
11
102
21
166
0
LINE
8
BLACK_POCKET
10
102
20
166
11
86
21
166
0
LINE
8
BLACK_POCKET
10
86
20
166
11
86
21
150
0
LINE
8
BLACK_POCKET
10
102
20
150
11
118
21
150
0
LINE
8
BLACK_POCKET
10
118
20
150
11
118
21
166
0
LINE
8
BLACK_POCKET
10
118
20
166
11
102
21
166
0
LINE
8
BLACK_POCKET
10
102
20
166
11
102
21
150
0
LINE
8
BLACK_POCKET
10
134
20
150
11
150
21
150
0
LINE
8
BLACK_POCKET
10
150
20
150
11
150
21
166
0
LINE
8
BLACK_POCKET
10
150
20
166
11
134
21
166
0
LINE
8
BLACK_POCKET
10
134
20
166
11
134
21
150
0
LINE
8
BLACK_POCKET
10
150
20
150
11
166
21
150
0
LINE
8
BLACK_POCKET
10
166
20
150
11
166
21
166
0
LINE
8
BLACK_POCKET
10
166
20
166
11
150
21
166
0
LINE
8
BLACK_POCKET
10
150
20
166
11
150
21
150
0
LINE
8
BLACK_POCKET
10
166
20
150
11
182
21
150
0
LINE
8
BLACK_POCKET
10
182
20
150
11
182
21
166
0
LINE
8
BLACK_POCKET
10
182
20
166
11
166
21
166
0
LINE
8
BLACK_POCKET
10
166
20
166
11
166
21
150
0
LINE
8
BLACK_POCKET
10
182
20
150
11
198
21
150
0
LINE
8
BLACK_POCKET
10
198
20
150
11
198
21
166
0
LINE
8
BLACK_POCKET
10
198
20
166
11
182
21
166
0
LINE
8
BLACK_POCKET
10
182
20
166
11
182
21
150
0
LINE
8
BLACK_POCKET
10
198
20
150
11
214
21
150
0
LINE
8
BLACK_POCKET
10
214
20
150
11
214
21
166
0
LINE
8
BLACK_POCKET
10
214
20
166
11
198
21
166
0
LINE
8
BLACK_POCKET
10
198
20
166
11
198
21
150
0
LINE
8
BLACK_POCKET
10
86
20
134
11
102
21
134
0
LINE
8
BLACK_POCKET
10
102
20
134
11
102
21
150
0
LINE
8
BLACK_POCKET
10
102
20
150
11
86
21
150
0
LINE
8
BLACK_POCKET
10
86
20
150
11
86
21
134
0
LINE
8
BLACK_POCKET
10
134
20
134
11
150
21
134
0
LINE
8
BLACK_POCKET
10
150
20
134
11
150
21
150
0
LINE
8
BLACK_POCKET
10
150
20
150
11
134
21
150
0
LINE
8
BLACK_POCKET
10
134
20
150
11
134
21
134
0
LINE
8
BLACK_POCKET
10
182
20
134
11
198
21
134
0
LINE
8
BLACK_POCKET
10
198
20
134
11
198
21
150
0
LINE
8
BLACK_POCKET
10
198
20
150
11
182
21
150
0
LINE
8
BLACK_POCKET
10
182
20
150
11
182
21
134
0
LINE
8
BLACK_POCKET
10
198
20
134
11
214
21
134
0
LINE
8
BLACK_POCKET
10
214
20
134
11
214
21
150
0
LINE
8
BLACK_POCKET
10
214
20
150
11
198
21
150
0
LINE
8
BLACK_POCKET
10
198
20
150
11
198
21
134
0
LINE
8
BLACK_POCKET
10
86
20
118
11
102
21
118
0
LINE
8
BLACK_POCKET
10
102
20
118
11
102
21
134
0
LINE
8
BLACK_POCKET
10
102
20
134
11
86
21
134
0
LINE
8
BLACK_POCKET
10
86
20
134
11
86
21
118
0
LINE
8
BLACK_POCKET
10
102
20
118
11
118
21
118
0
LINE
8
BLACK_POCKET
10
118
20
118
11
118
21
134
0
LINE
8
BLACK_POCKET
10
118
20
134
11
102
21
134
0
LINE
8
BLACK_POCKET
10
102
20
134
11
102
21
118
0
LINE
8
BLACK_POCKET
10
150
20
118
11
166
21
118
0
LINE
8
BLACK_POCKET
10
166
20
118
11
166
21
134
0
LINE
8
BLACK_POCKET
10
166
20
134
11
150
21
134
0
LINE
8
BLACK_POCKET
10
150
20
134
11
150
21
118
0
LINE
8
BLACK_POCKET
10
198
20
118
11
214
21
118
0
LINE
8
BLACK_POCKET
10
214
20
118
11
214
21
134
0
LINE
8
BLACK_POCKET
10
214
20
134
11
198
21
134
0
LINE
8
BLACK_POCKET
10
198
20
134
11
198
21
118
0
LINE
8
BLACK_POCKET
10
86
20
102
11
102
21
102
0
LINE
8
BLACK_POCKET
10
102
20
102
11
102
21
118
0
LINE
8
BLACK_POCKET
10
102
20
118
11
86
21
118
0
LINE
8
BLACK_POCKET
10
86
20
118
11
86
21
102
0
LINE
8
BLACK_POCKET
10
102
20
102
11
118
21
102
0
LINE
8
BLACK_POCKET
10
118
20
102
11
118
21
118
0
LINE
8
BLACK_POCKET
10
118
20
118
11
102
21
118
0
LINE
8
BLACK_POCKET
10
102
20
118
11
102
21
102
0
LINE
8
BLACK_POCKET
10
118
20
102
11
134
21
102
0
LINE
8
BLACK_POCKET
10
134
20
102
11
134
21
118
0
LINE
8
BLACK_POCKET
10
134
20
118
11
118
21
118
0
LINE
8
BLACK_POCKET
10
118
20
118
11
118
21
102
0
LINE
8
BLACK_POCKET
10
134
20
102
11
150
21
102
0
LINE
8
BLACK_POCKET
10
150
20
102
11
150
21
118
0
LINE
8
BLACK_POCKET
10
150
20
118
11
134
21
118
0
LINE
8
BLACK_POCKET
10
134
20
118
11
134
21
102
0
LINE
8
BLACK_POCKET
10
182
20
102
11
198
21
102
0
LINE
8
BLACK_POCKET
10
198
20
102
11
198
21
118
0
LINE
8
BLACK_POCKET
10
198
20
118
11
182
21
118
0
LINE
8
BLACK_POCKET
10
182
20
118
11
182
21
102
0
LINE
8
BLACK_POCKET
10
198
20
102
11
214
21
102
0
LINE
8
BLACK_POCKET
10
214
20
102
11
214
21
118
0
LINE
8
BLACK_POCKET
10
214
20
118
11
198
21
118
0
LINE
8
BLACK_POCKET
10
198
20
118
11
198
21
102
0
LINE
8
BLACK_POCKET
10
86
20
86
11
102
21
86
0
LINE
8
BLACK_POCKET
10
102
20
86
11
102
21
102
0
LINE
8
BLACK_POCKET
10
102
20
102
11
86
21
102
0
LINE
8
BLACK_POCKET
10
86
20
102
11
86
21
86
0
LINE
8
BLACK_POCKET
10
102
20
86
11
118
21
86
0
LINE
8
BLACK_POCKET
10
118
20
86
11
118
21
102
0
LINE
8
BLACK_POCKET
10
118
20
102
11
102
21
102
0
LINE
8
BLACK_POCKET
10
102
20
102
11
102
21
86
0
LINE
8
BLACK_POCKET
10
118
20
86
11
134
21
86
0
LINE
8
BLACK_POCKET
10
134
20
86
11
134
21
102
0
LINE
8
BLACK_POCKET
10
134
20
102
11
118
21
102
0
LINE
8
BLACK_POCKET
10
118
20
102
11
118
21
86
0
LINE
8
BLACK_POCKET
10
134
20
86
11
150
21
86
0
LINE
8
BLACK_POCKET
10
150
20
86
11
150
21
102
0
LINE
8
BLACK_POCKET
10
150
20
102
11
134
21
102
0
LINE
8
BLACK_POCKET
10
134
20
102
11
134
21
86
0
LINE
8
BLACK_POCKET
10
150
20
86
11
166
21
86
0
LINE
8
BLACK_POCKET
10
166
20
86
11
166
21
102
0
LINE
8
BLACK_POCKET
10
166
20
102
11
150
21
102
0
LINE
8
BLACK_POCKET
10
150
20
102
11
150
21
86
0
LINE
8
BLACK_POCKET
10
166
20
86
11
182
21
86
0
LINE
8
BLACK_POCKET
10
182
20
86
11
182
21
102
0
LINE
8
BLACK_POCKET
10
182
20
102
11
166
21
102
0
LINE
8
BLACK_POCKET
10
166
20
102
11
166
21
86
0
LINE
8
BLACK_POCKET
10
182
20
86
11
198
21
86
0
LINE
8
BLACK_POCKET
10
198
20
86
11
198
21
102
0
LINE
8
BLACK_POCKET
10
198
20
102
11
182
21
102
0
LINE
8
BLACK_POCKET
10
182
20
102
11
182
21
86
0
LINE
8
BLACK_POCKET
10
198
20
86
11
214
21
86
0
LINE
8
BLACK_POCKET
10
214
20
86
11
214
21
102
0
LINE
8
BLACK_POCKET
10
214
20
102
11
198
21
102
0
LINE
8
BLACK_POCKET
10
198
20
102
11
198
21
86
0
LINE
8
BLACK_POCKET
10
22
20
272.5
11
27.5
21
272.5
0
LINE
8
BLACK_POCKET
10
27.5
20
272.5
11
27.5
21
278
0
LINE
8
BLACK_POCKET
10
27.5
20
278
11
22
21
278
0
LINE
8
BLACK_POCKET
10
22
20
278
11
22
21
272.5
0
LINE
8
BLACK_POCKET
10
27.5
20
272.5
11
33
21
272.5
0
LINE
8
BLACK_POCKET
10
33
20
272.5
11
33
21
278
0
LINE
8
BLACK_POCKET
10
33
20
278
11
27.5
21
278
0
LINE
8
BLACK_POCKET
10
27.5
20
278
11
27.5
21
272.5
0
LINE
8
BLACK_POCKET
10
33
20
272.5
11
38.5
21
272.5
0
LINE
8
BLACK_POCKET
10
38.5
20
272.5
11
38.5
21
278
0
LINE
8
BLACK_POCKET
10
38.5
20
278
11
33
21
278
0
LINE
8
BLACK_POCKET
10
33
20
278
11
33
21
272.5
0
LINE
8
BLACK_POCKET
10
38.5
20
272.5
11
44
21
272.5
0
LINE
8
BLACK_POCKET
10
44
20
272.5
11
44
21
278
0
LINE
8
BLACK_POCKET
10
44
20
278
11
38.5
21
278
0
LINE
8
BLACK_POCKET
10
38.5
20
278
11
38.5
21
272.5
0
LINE
8
BLACK_POCKET
10
44
20
272.5
11
49.5
21
272.5
0
LINE
8
BLACK_POCKET
10
49.5
20
272.5
11
49.5
21
278
0
LINE
8
BLACK_POCKET
10
49.5
20
278
11
44
21
278
0
LINE
8
BLACK_POCKET
10
44
20
278
11
44
21
272.5
0
LINE
8
BLACK_POCKET
10
49.5
20
272.5
11
55
21
272.5
0
LINE
8
BLACK_POCKET
10
55
20
272.5
11
55
21
278
0
LINE
8
BLACK_POCKET
10
55
20
278
11
49.5
21
278
0
LINE
8
BLACK_POCKET
10
49.5
20
278
11
49.5
21
272.5
0
LINE
8
BLACK_POCKET
10
55
20
272.5
11
60.5
21
272.5
0
LINE
8
BLACK_POCKET
10
60.5
20
272.5
11
60.5
21
278
0
LINE
8
BLACK_POCKET
10
60.5
20
278
11
55
21
278
0
LINE
8
BLACK_POCKET
10
55
20
278
11
55
21
272.5
0
LINE
8
BLACK_POCKET
10
60.5
20
272.5
11
66
21
272.5
0
LINE
8
BLACK_POCKET
10
66
20
272.5
11
66
21
278
0
LINE
8
BLACK_POCKET
10
66
20
278
11
60.5
21
278
0
LINE
8
BLACK_POCKET
10
60.5
20
278
11
60.5
21
272.5
0
LINE
8
BLACK_POCKET
10
22
20
267
11
27.5
21
267
0
LINE
8
BLACK_POCKET
10
27.5
20
267
11
27.5
21
272.5
0
LINE
8
BLACK_POCKET
10
27.5
20
272.5
11
22
21
272.5
0
LINE
8
BLACK_POCKET
10
22
20
272.5
11
22
21
267
0
LINE
8
BLACK_POCKET
10
27.5
20
267
11
33
21
267
0
LINE
8
BLACK_POCKET
10
33
20
267
11
33
21
272.5
0
LINE
8
BLACK_POCKET
10
33
20
272.5
11
27.5
21
272.5
0
LINE
8
BLACK_POCKET
10
27.5
20
272.5
11
27.5
21
267
0
LINE
8
BLACK_POCKET
10
38.5
20
267
11
44
21
267
0
LINE
8
BLACK_POCKET
10
44
20
267
11
44
21
272.5
0
LINE
8
BLACK_POCKET
10
44
20
272.5
11
38.5
21
272.5
0
LINE
8
BLACK_POCKET
10
38.5
20
272.5
11
38.5
21
267
0
LINE
8
BLACK_POCKET
10
60.5
20
267
11
66
21
267
0
LINE
8
BLACK_POCKET
10
66
20
267
11
66
21
272.5
0
LINE
8
BLACK_POCKET
10
66
20
272.5
11
60.5
21
272.5
0
LINE
8
BLACK_POCKET
10
60.5
20
272.5
11
60.5
21
267
0
LINE
8
BLACK_POCKET
10
22
20
261.5
11
27.5
21
261.5
0
LINE
8
BLACK_POCKET
10
27.5
20
261.5
11
27.5
21
267
0
LINE
8
BLACK_POCKET
10
27.5
20
267
11
22
21
267
0
LINE
8
BLACK_POCKET
10
22
20
267
11
22
21
261.5
0
LINE
8
BLACK_POCKET
10
27.5
20
261.5
11
33
21
261.5
0
LINE
8
BLACK_POCKET
10
33
20
261.5
11
33
21
267
0
LINE
8
BLACK_POCKET
10
33
20
267
11
27.5
21
267
0
LINE
8
BLACK_POCKET
10
27.5
20
267
11
27.5
21
261.5
0
LINE
8
BLACK_POCKET
10
33
20
261.5
11
38.5
21
261.5
0
LINE
8
BLACK_POCKET
10
38.5
20
261.5
11
38.5
21
267
0
LINE
8
BLACK_POCKET
10
38.5
20
267
11
33
21
267
0
LINE
8
BLACK_POCKET
10
33
20
267
11
33
21
261.5
0
LINE
8
BLACK_POCKET
10
55
20
261.5
11
60.5
21
261.5
0
LINE
8
BLACK_POCKET
10
60.5
20
261.5
11
60.5
21
267
0
LINE
8
BLACK_POCKET
10
60.5
20
267
11
55
21
267
0
LINE
8
BLACK_POCKET
10
55
20
267
11
55
21
261.5
0
LINE
8
BLACK_POCKET
10
60.5
20
261.5
11
66
21
261.5
0
LINE
8
BLACK_POCKET
10
66
20
261.5
11
66
21
267
0
LINE
8
BLACK_POCKET
10
66
20
267
11
60.5
21
267
0
LINE
8
BLACK_POCKET
10
60.5
20
267
11
60.5
21
261.5
0
LINE
8
BLACK_POCKET
10
22
20
256
11
27.5
21
256
0
LINE
8
BLACK_POCKET
10
27.5
20
256
11
27.5
21
261.5
0
LINE
8
BLACK_POCKET
10
27.5
20
261.5
11
22
21
261.5
0
LINE
8
BLACK_POCKET
10
22
20
261.5
11
22
21
256
0
LINE
8
BLACK_POCKET
10
55
20
256
11
60.5
21
256
0
LINE
8
BLACK_POCKET
10
60.5
20
256
11
60.5
21
261.5
0
LINE
8
BLACK_POCKET
10
60.5
20
261.5
11
55
21
261.5
0
LINE
8
BLACK_POCKET
10
55
20
261.5
11
55
21
256
0
LINE
8
BLACK_POCKET
10
60.5
20
256
11
66
21
256
0
LINE
8
BLACK_POCKET
10
66
20
256
11
66
21
261.5
0
LINE
8
BLACK_POCKET
10
66
20
261.5
11
60.5
21
261.5
0
LINE
8
BLACK_POCKET
10
60.5
20
261.5
11
60.5
21
256
0
LINE
8
BLACK_POCKET
10
22
20
250.5
11
27.5
21
250.5
0
LINE
8
BLACK_POCKET
10
27.5
20
250.5
11
27.5
21
256
0
LINE
8
BLACK_POCKET
10
27.5
20
256
11
22
21
256
0
LINE
8
BLACK_POCKET
10
22
20
256
11
22
21
250.5
0
LINE
8
BLACK_POCKET
10
44
20
250.5
11
49.5
21
250.5
0
LINE
8
BLACK_POCKET
10
49.5
20
250.5
11
49.5
21
256
0
LINE
8
BLACK_POCKET
10
49.5
20
256
11
44
21
256
0
LINE
8
BLACK_POCKET
10
44
20
256
11
44
21
250.5
0
LINE
8
BLACK_POCKET
10
49.5
20
250.5
11
55
21
250.5
0
LINE
8
BLACK_POCKET
10
55
20
250.5
11
55
21
256
0
LINE
8
BLACK_POCKET
10
55
20
256
11
49.5
21
256
0
LINE
8
BLACK_POCKET
10
49.5
20
256
11
49.5
21
250.5
0
LINE
8
BLACK_POCKET
10
60.5
20
250.5
11
66
21
250.5
0
LINE
8
BLACK_POCKET
10
66
20
250.5
11
66
21
256
0
LINE
8
BLACK_POCKET
10
66
20
256
11
60.5
21
256
0
LINE
8
BLACK_POCKET
10
60.5
20
256
11
60.5
21
250.5
0
LINE
8
BLACK_POCKET
10
22
20
245
11
27.5
21
245
0
LINE
8
BLACK_POCKET
10
27.5
20
245
11
27.5
21
250.5
0
LINE
8
BLACK_POCKET
10
27.5
20
250.5
11
22
21
250.5
0
LINE
8
BLACK_POCKET
10
22
20
250.5
11
22
21
245
0
LINE
8
BLACK_POCKET
10
27.5
20
245
11
33
21
245
0
LINE
8
BLACK_POCKET
10
33
20
245
11
33
21
250.5
0
LINE
8
BLACK_POCKET
10
33
20
250.5
11
27.5
21
250.5
0
LINE
8
BLACK_POCKET
10
27.5
20
250.5
11
27.5
21
245
0
LINE
8
BLACK_POCKET
10
38.5
20
245
11
44
21
245
0
LINE
8
BLACK_POCKET
10
44
20
245
11
44
21
250.5
0
LINE
8
BLACK_POCKET
10
44
20
250.5
11
38.5
21
250.5
0
LINE
8
BLACK_POCKET
10
38.5
20
250.5
11
38.5
21
245
0
LINE
8
BLACK_POCKET
10
49.5
20
245
11
55
21
245
0
LINE
8
BLACK_POCKET
10
55
20
245
11
55
21
250.5
0
LINE
8
BLACK_POCKET
10
55
20
250.5
11
49.5
21
250.5
0
LINE
8
BLACK_POCKET
10
49.5
20
250.5
11
49.5
21
245
0
LINE
8
BLACK_POCKET
10
55
20
245
11
60.5
21
245
0
LINE
8
BLACK_POCKET
10
60.5
20
245
11
60.5
21
250.5
0
LINE
8
BLACK_POCKET
10
60.5
20
250.5
11
55
21
250.5
0
LINE
8
BLACK_POCKET
10
55
20
250.5
11
55
21
245
0
LINE
8
BLACK_POCKET
10
60.5
20
245
11
66
21
245
0
LINE
8
BLACK_POCKET
10
66
20
245
11
66
21
250.5
0
LINE
8
BLACK_POCKET
10
66
20
250.5
11
60.5
21
250.5
0
LINE
8
BLACK_POCKET
10
60.5
20
250.5
11
60.5
21
245
0
LINE
8
BLACK_POCKET
10
22
20
239.5
11
27.5
21
239.5
0
LINE
8
BLACK_POCKET
10
27.5
20
239.5
11
27.5
21
245
0
LINE
8
BLACK_POCKET
10
27.5
20
245
11
22
21
245
0
LINE
8
BLACK_POCKET
10
22
20
245
11
22
21
239.5
0
LINE
8
BLACK_POCKET
10
38.5
20
239.5
11
44
21
239.5
0
LINE
8
BLACK_POCKET
10
44
20
239.5
11
44
21
245
0
LINE
8
BLACK_POCKET
10
44
20
245
11
38.5
21
245
0
LINE
8
BLACK_POCKET
10
38.5
20
245
11
38.5
21
239.5
0
LINE
8
BLACK_POCKET
10
55
20
239.5
11
60.5
21
239.5
0
LINE
8
BLACK_POCKET
10
60.5
20
239.5
11
60.5
21
245
0
LINE
8
BLACK_POCKET
10
60.5
20
245
11
55
21
245
0
LINE
8
BLACK_POCKET
10
55
20
245
11
55
21
239.5
0
LINE
8
BLACK_POCKET
10
60.5
20
239.5
11
66
21
239.5
0
LINE
8
BLACK_POCKET
10
66
20
239.5
11
66
21
245
0
LINE
8
BLACK_POCKET
10
66
20
245
11
60.5
21
245
0
LINE
8
BLACK_POCKET
10
60.5
20
245
11
60.5
21
239.5
0
LINE
8
BLACK_POCKET
10
22
20
234
11
27.5
21
234
0
LINE
8
BLACK_POCKET
10
27.5
20
234
11
27.5
21
239.5
0
LINE
8
BLACK_POCKET
10
27.5
20
239.5
11
22
21
239.5
0
LINE
8
BLACK_POCKET
10
22
20
239.5
11
22
21
234
0
LINE
8
BLACK_POCKET
10
27.5
20
234
11
33
21
234
0
LINE
8
BLACK_POCKET
10
33
20
234
11
33
21
239.5
0
LINE
8
BLACK_POCKET
10
33
20
239.5
11
27.5
21
239.5
0
LINE
8
BLACK_POCKET
10
27.5
20
239.5
11
27.5
21
234
0
LINE
8
BLACK_POCKET
10
33
20
234
11
38.5
21
234
0
LINE
8
BLACK_POCKET
10
38.5
20
234
11
38.5
21
239.5
0
LINE
8
BLACK_POCKET
10
38.5
20
239.5
11
33
21
239.5
0
LINE
8
BLACK_POCKET
10
33
20
239.5
11
33
21
234
0
LINE
8
BLACK_POCKET
10
38.5
20
234
11
44
21
234
0
LINE
8
BLACK_POCKET
10
44
20
234
11
44
21
239.5
0
LINE
8
BLACK_POCKET
10
44
20
239.5
11
38.5
21
239.5
0
LINE
8
BLACK_POCKET
10
38.5
20
239.5
11
38.5
21
234
0
LINE
8
BLACK_POCKET
10
44
20
234
11
49.5
21
234
0
LINE
8
BLACK_POCKET
10
49.5
20
234
11
49.5
21
239.5
0
LINE
8
BLACK_POCKET
10
49.5
20
239.5
11
44
21
239.5
0
LINE
8
BLACK_POCKET
10
44
20
239.5
11
44
21
234
0
LINE
8
BLACK_POCKET
10
49.5
20
234
11
55
21
234
0
LINE
8
BLACK_POCKET
10
55
20
234
11
55
21
239.5
0
LINE
8
BLACK_POCKET
10
55
20
239.5
11
49.5
21
239.5
0
LINE
8
BLACK_POCKET
10
49.5
20
239.5
11
49.5
21
234
0
LINE
8
BLACK_POCKET
10
55
20
234
11
60.5
21
234
0
LINE
8
BLACK_POCKET
10
60.5
20
234
11
60.5
21
239.5
0
LINE
8
BLACK_POCKET
10
60.5
20
239.5
11
55
21
239.5
0
LINE
8
BLACK_POCKET
10
55
20
239.5
11
55
21
234
0
LINE
8
BLACK_POCKET
10
60.5
20
234
11
66
21
234
0
LINE
8
BLACK_POCKET
10
66
20
234
11
66
21
239.5
0
LINE
8
BLACK_POCKET
10
66
20
239.5
11
60.5
21
239.5
0
LINE
8
BLACK_POCKET
10
60.5
20
239.5
11
60.5
21
234
0
LINE
8
BLACK_POCKET
10
128
20
272.5
11
133.5
21
272.5
0
LINE
8
BLACK_POCKET
10
133.5
20
272.5
11
133.5
21
278
0
LINE
8
BLACK_POCKET
10
133.5
20
278
11
128
21
278
0
LINE
8
BLACK_POCKET
10
128
20
278
11
128
21
272.5
0
LINE
8
BLACK_POCKET
10
133.5
20
272.5
11
139
21
272.5
0
LINE
8
BLACK_POCKET
10
139
20
272.5
11
139
21
278
0
LINE
8
BLACK_POCKET
10
139
20
278
11
133.5
21
278
0
LINE
8
BLACK_POCKET
10
133.5
20
278
11
133.5
21
272.5
0
LINE
8
BLACK_POCKET
10
139
20
272.5
11
144.5
21
272.5
0
LINE
8
BLACK_POCKET
10
144.5
20
272.5
11
144.5
21
278
0
LINE
8
BLACK_POCKET
10
144.5
20
278
11
139
21
278
0
LINE
8
BLACK_POCKET
10
139
20
278
11
139
21
272.5
0
LINE
8
BLACK_POCKET
10
144.5
20
272.5
11
150
21
272.5
0
LINE
8
BLACK_POCKET
10
150
20
272.5
11
150
21
278
0
LINE
8
BLACK_POCKET
10
150
20
278
11
144.5
21
278
0
LINE
8
BLACK_POCKET
10
144.5
20
278
11
144.5
21
272.5
0
LINE
8
BLACK_POCKET
10
150
20
272.5
11
155.5
21
272.5
0
LINE
8
BLACK_POCKET
10
155.5
20
272.5
11
155.5
21
278
0
LINE
8
BLACK_POCKET
10
155.5
20
278
11
150
21
278
0
LINE
8
BLACK_POCKET
10
150
20
278
11
150
21
272.5
0
LINE
8
BLACK_POCKET
10
155.5
20
272.5
11
161
21
272.5
0
LINE
8
BLACK_POCKET
10
161
20
272.5
11
161
21
278
0
LINE
8
BLACK_POCKET
10
161
20
278
11
155.5
21
278
0
LINE
8
BLACK_POCKET
10
155.5
20
278
11
155.5
21
272.5
0
LINE
8
BLACK_POCKET
10
161
20
272.5
11
166.5
21
272.5
0
LINE
8
BLACK_POCKET
10
166.5
20
272.5
11
166.5
21
278
0
LINE
8
BLACK_POCKET
10
166.5
20
278
11
161
21
278
0
LINE
8
BLACK_POCKET
10
161
20
278
11
161
21
272.5
0
LINE
8
BLACK_POCKET
10
166.5
20
272.5
11
172
21
272.5
0
LINE
8
BLACK_POCKET
10
172
20
272.5
11
172
21
278
0
LINE
8
BLACK_POCKET
10
172
20
278
11
166.5
21
278
0
LINE
8
BLACK_POCKET
10
166.5
20
278
11
166.5
21
272.5
0
LINE
8
BLACK_POCKET
10
128
20
267
11
133.5
21
267
0
LINE
8
BLACK_POCKET
10
133.5
20
267
11
133.5
21
272.5
0
LINE
8
BLACK_POCKET
10
133.5
20
272.5
11
128
21
272.5
0
LINE
8
BLACK_POCKET
10
128
20
272.5
11
128
21
267
0
LINE
8
BLACK_POCKET
10
133.5
20
267
11
139
21
267
0
LINE
8
BLACK_POCKET
10
139
20
267
11
139
21
272.5
0
LINE
8
BLACK_POCKET
10
139
20
272.5
11
133.5
21
272.5
0
LINE
8
BLACK_POCKET
10
133.5
20
272.5
11
133.5
21
267
0
LINE
8
BLACK_POCKET
10
139
20
267
11
144.5
21
267
0
LINE
8
BLACK_POCKET
10
144.5
20
267
11
144.5
21
272.5
0
LINE
8
BLACK_POCKET
10
144.5
20
272.5
11
139
21
272.5
0
LINE
8
BLACK_POCKET
10
139
20
272.5
11
139
21
267
0
LINE
8
BLACK_POCKET
10
144.5
20
267
11
150
21
267
0
LINE
8
BLACK_POCKET
10
150
20
267
11
150
21
272.5
0
LINE
8
BLACK_POCKET
10
150
20
272.5
11
144.5
21
272.5
0
LINE
8
BLACK_POCKET
10
144.5
20
272.5
11
144.5
21
267
0
LINE
8
BLACK_POCKET
10
150
20
267
11
155.5
21
267
0
LINE
8
BLACK_POCKET
10
155.5
20
267
11
155.5
21
272.5
0
LINE
8
BLACK_POCKET
10
155.5
20
272.5
11
150
21
272.5
0
LINE
8
BLACK_POCKET
10
150
20
272.5
11
150
21
267
0
LINE
8
BLACK_POCKET
10
166.5
20
267
11
172
21
267
0
LINE
8
BLACK_POCKET
10
172
20
267
11
172
21
272.5
0
LINE
8
BLACK_POCKET
10
172
20
272.5
11
166.5
21
272.5
0
LINE
8
BLACK_POCKET
10
166.5
20
272.5
11
166.5
21
267
0
LINE
8
BLACK_POCKET
10
128
20
261.5
11
133.5
21
261.5
0
LINE
8
BLACK_POCKET
10
133.5
20
261.5
11
133.5
21
267
0
LINE
8
BLACK_POCKET
10
133.5
20
267
11
128
21
267
0
LINE
8
BLACK_POCKET
10
128
20
267
11
128
21
261.5
0
LINE
8
BLACK_POCKET
10
144.5
20
261.5
11
150
21
261.5
0
LINE
8
BLACK_POCKET
10
150
20
261.5
11
150
21
267
0
LINE
8
BLACK_POCKET
10
150
20
267
11
144.5
21
267
0
LINE
8
BLACK_POCKET
10
144.5
20
267
11
144.5
21
261.5
0
LINE
8
BLACK_POCKET
10
150
20
261.5
11
155.5
21
261.5
0
LINE
8
BLACK_POCKET
10
155.5
20
261.5
11
155.5
21
267
0
LINE
8
BLACK_POCKET
10
155.5
20
267
11
150
21
267
0
LINE
8
BLACK_POCKET
10
150
20
267
11
150
21
261.5
0
LINE
8
BLACK_POCKET
10
155.5
20
261.5
11
161
21
261.5
0
LINE
8
BLACK_POCKET
10
161
20
261.5
11
161
21
267
0
LINE
8
BLACK_POCKET
10
161
20
267
11
155.5
21
267
0
LINE
8
BLACK_POCKET
10
155.5
20
267
11
155.5
21
261.5
0
LINE
8
BLACK_POCKET
10
161
20
261.5
11
166.5
21
261.5
0
LINE
8
BLACK_POCKET
10
166.5
20
261.5
11
166.5
21
267
0
LINE
8
BLACK_POCKET
10
166.5
20
267
11
161
21
267
0
LINE
8
BLACK_POCKET
10
161
20
267
11
161
21
261.5
0
LINE
8
BLACK_POCKET
10
166.5
20
261.5
11
172
21
261.5
0
LINE
8
BLACK_POCKET
10
172
20
261.5
11
172
21
267
0
LINE
8
BLACK_POCKET
10
172
20
267
11
166.5
21
267
0
LINE
8
BLACK_POCKET
10
166.5
20
267
11
166.5
21
261.5
0
LINE
8
BLACK_POCKET
10
128
20
256
11
133.5
21
256
0
LINE
8
BLACK_POCKET
10
133.5
20
256
11
133.5
21
261.5
0
LINE
8
BLACK_POCKET
10
133.5
20
261.5
11
128
21
261.5
0
LINE
8
BLACK_POCKET
10
128
20
261.5
11
128
21
256
0
LINE
8
BLACK_POCKET
10
133.5
20
256
11
139
21
256
0
LINE
8
BLACK_POCKET
10
139
20
256
11
139
21
261.5
0
LINE
8
BLACK_POCKET
10
139
20
261.5
11
133.5
21
261.5
0
LINE
8
BLACK_POCKET
10
133.5
20
261.5
11
133.5
21
256
0
LINE
8
BLACK_POCKET
10
150
20
256
11
155.5
21
256
0
LINE
8
BLACK_POCKET
10
155.5
20
256
11
155.5
21
261.5
0
LINE
8
BLACK_POCKET
10
155.5
20
261.5
11
150
21
261.5
0
LINE
8
BLACK_POCKET
10
150
20
261.5
11
150
21
256
0
LINE
8
BLACK_POCKET
10
161
20
256
11
166.5
21
256
0
LINE
8
BLACK_POCKET
10
166.5
20
256
11
166.5
21
261.5
0
LINE
8
BLACK_POCKET
10
166.5
20
261.5
11
161
21
261.5
0
LINE
8
BLACK_POCKET
10
161
20
261.5
11
161
21
256
0
LINE
8
BLACK_POCKET
10
166.5
20
256
11
172
21
256
0
LINE
8
BLACK_POCKET
10
172
20
256
11
172
21
261.5
0
LINE
8
BLACK_POCKET
10
172
20
261.5
11
166.5
21
261.5
0
LINE
8
BLACK_POCKET
10
166.5
20
261.5
11
166.5
21
256
0
LINE
8
BLACK_POCKET
10
128
20
250.5
11
133.5
21
250.5
0
LINE
8
BLACK_POCKET
10
133.5
20
250.5
11
133.5
21
256
0
LINE
8
BLACK_POCKET
10
133.5
20
256
11
128
21
256
0
LINE
8
BLACK_POCKET
10
128
20
256
11
128
21
250.5
0
LINE
8
BLACK_POCKET
10
144.5
20
250.5
11
150
21
250.5
0
LINE
8
BLACK_POCKET
10
150
20
250.5
11
150
21
256
0
LINE
8
BLACK_POCKET
10
150
20
256
11
144.5
21
256
0
LINE
8
BLACK_POCKET
10
144.5
20
256
11
144.5
21
250.5
0
LINE
8
BLACK_POCKET
10
161
20
250.5
11
166.5
21
250.5
0
LINE
8
BLACK_POCKET
10
166.5
20
250.5
11
166.5
21
256
0
LINE
8
BLACK_POCKET
10
166.5
20
256
11
161
21
256
0
LINE
8
BLACK_POCKET
10
161
20
256
11
161
21
250.5
0
LINE
8
BLACK_POCKET
10
166.5
20
250.5
11
172
21
250.5
0
LINE
8
BLACK_POCKET
10
172
20
250.5
11
172
21
256
0
LINE
8
BLACK_POCKET
10
172
20
256
11
166.5
21
256
0
LINE
8
BLACK_POCKET
10
166.5
20
256
11
166.5
21
250.5
0
LINE
8
BLACK_POCKET
10
128
20
245
11
133.5
21
245
0
LINE
8
BLACK_POCKET
10
133.5
20
245
11
133.5
21
250.5
0
LINE
8
BLACK_POCKET
10
133.5
20
250.5
11
128
21
250.5
0
LINE
8
BLACK_POCKET
10
128
20
250.5
11
128
21
245
0
LINE
8
BLACK_POCKET
10
133.5
20
245
11
139
21
245
0
LINE
8
BLACK_POCKET
10
139
20
245
11
139
21
250.5
0
LINE
8
BLACK_POCKET
10
139
20
250.5
11
133.5
21
250.5
0
LINE
8
BLACK_POCKET
10
133.5
20
250.5
11
133.5
21
245
0
LINE
8
BLACK_POCKET
10
150
20
245
11
155.5
21
245
0
LINE
8
BLACK_POCKET
10
155.5
20
245
11
155.5
21
250.5
0
LINE
8
BLACK_POCKET
10
155.5
20
250.5
11
150
21
250.5
0
LINE
8
BLACK_POCKET
10
150
20
250.5
11
150
21
245
0
LINE
8
BLACK_POCKET
10
155.5
20
245
11
161
21
245
0
LINE
8
BLACK_POCKET
10
161
20
245
11
161
21
250.5
0
LINE
8
BLACK_POCKET
10
161
20
250.5
11
155.5
21
250.5
0
LINE
8
BLACK_POCKET
10
155.5
20
250.5
11
155.5
21
245
0
LINE
8
BLACK_POCKET
10
161
20
245
11
166.5
21
245
0
LINE
8
BLACK_POCKET
10
166.5
20
245
11
166.5
21
250.5
0
LINE
8
BLACK_POCKET
10
166.5
20
250.5
11
161
21
250.5
0
LINE
8
BLACK_POCKET
10
161
20
250.5
11
161
21
245
0
LINE
8
BLACK_POCKET
10
166.5
20
245
11
172
21
245
0
LINE
8
BLACK_POCKET
10
172
20
245
11
172
21
250.5
0
LINE
8
BLACK_POCKET
10
172
20
250.5
11
166.5
21
250.5
0
LINE
8
BLACK_POCKET
10
166.5
20
250.5
11
166.5
21
245
0
LINE
8
BLACK_POCKET
10
128
20
239.5
11
133.5
21
239.5
0
LINE
8
BLACK_POCKET
10
133.5
20
239.5
11
133.5
21
245
0
LINE
8
BLACK_POCKET
10
133.5
20
245
11
128
21
245
0
LINE
8
BLACK_POCKET
10
128
20
245
11
128
21
239.5
0
LINE
8
BLACK_POCKET
10
133.5
20
239.5
11
139
21
239.5
0
LINE
8
BLACK_POCKET
10
139
20
239.5
11
139
21
245
0
LINE
8
BLACK_POCKET
10
139
20
245
11
133.5
21
245
0
LINE
8
BLACK_POCKET
10
133.5
20
245
11
133.5
21
239.5
0
LINE
8
BLACK_POCKET
10
139
20
239.5
11
144.5
21
239.5
0
LINE
8
BLACK_POCKET
10
144.5
20
239.5
11
144.5
21
245
0
LINE
8
BLACK_POCKET
10
144.5
20
245
11
139
21
245
0
LINE
8
BLACK_POCKET
10
139
20
245
11
139
21
239.5
0
LINE
8
BLACK_POCKET
10
144.5
20
239.5
11
150
21
239.5
0
LINE
8
BLACK_POCKET
10
150
20
239.5
11
150
21
245
0
LINE
8
BLACK_POCKET
10
150
20
245
11
144.5
21
245
0
LINE
8
BLACK_POCKET
10
144.5
20
245
11
144.5
21
239.5
0
LINE
8
BLACK_POCKET
10
155.5
20
239.5
11
161
21
239.5
0
LINE
8
BLACK_POCKET
10
161
20
239.5
11
161
21
245
0
LINE
8
BLACK_POCKET
10
161
20
245
11
155.5
21
245
0
LINE
8
BLACK_POCKET
10
155.5
20
245
11
155.5
21
239.5
0
LINE
8
BLACK_POCKET
10
166.5
20
239.5
11
172
21
239.5
0
LINE
8
BLACK_POCKET
10
172
20
239.5
11
172
21
245
0
LINE
8
BLACK_POCKET
10
172
20
245
11
166.5
21
245
0
LINE
8
BLACK_POCKET
10
166.5
20
245
11
166.5
21
239.5
0
LINE
8
BLACK_POCKET
10
128
20
234
11
133.5
21
234
0
LINE
8
BLACK_POCKET
10
133.5
20
234
11
133.5
21
239.5
0
LINE
8
BLACK_POCKET
10
133.5
20
239.5
11
128
21
239.5
0
LINE
8
BLACK_POCKET
10
128
20
239.5
11
128
21
234
0
LINE
8
BLACK_POCKET
10
133.5
20
234
11
139
21
234
0
LINE
8
BLACK_POCKET
10
139
20
234
11
139
21
239.5
0
LINE
8
BLACK_POCKET
10
139
20
239.5
11
133.5
21
239.5
0
LINE
8
BLACK_POCKET
10
133.5
20
239.5
11
133.5
21
234
0
LINE
8
BLACK_POCKET
10
139
20
234
11
144.5
21
234
0
LINE
8
BLACK_POCKET
10
144.5
20
234
11
144.5
21
239.5
0
LINE
8
BLACK_POCKET
10
144.5
20
239.5
11
139
21
239.5
0
LINE
8
BLACK_POCKET
10
139
20
239.5
11
139
21
234
0
LINE
8
BLACK_POCKET
10
144.5
20
234
11
150
21
234
0
LINE
8
BLACK_POCKET
10
150
20
234
11
150
21
239.5
0
LINE
8
BLACK_POCKET
10
150
20
239.5
11
144.5
21
239.5
0
LINE
8
BLACK_POCKET
10
144.5
20
239.5
11
144.5
21
234
0
LINE
8
BLACK_POCKET
10
150
20
234
11
155.5
21
234
0
LINE
8
BLACK_POCKET
10
155.5
20
234
11
155.5
21
239.5
0
LINE
8
BLACK_POCKET
10
155.5
20
239.5
11
150
21
239.5
0
LINE
8
BLACK_POCKET
10
150
20
239.5
11
150
21
234
0
LINE
8
BLACK_POCKET
10
155.5
20
234
11
161
21
234
0
LINE
8
BLACK_POCKET
10
161
20
234
11
161
21
239.5
0
LINE
8
BLACK_POCKET
10
161
20
239.5
11
155.5
21
239.5
0
LINE
8
BLACK_POCKET
10
155.5
20
239.5
11
155.5
21
234
0
LINE
8
BLACK_POCKET
10
161
20
234
11
166.5
21
234
0
LINE
8
BLACK_POCKET
10
166.5
20
234
11
166.5
21
239.5
0
LINE
8
BLACK_POCKET
10
166.5
20
239.5
11
161
21
239.5
0
LINE
8
BLACK_POCKET
10
161
20
239.5
11
161
21
234
0
LINE
8
BLACK_POCKET
10
166.5
20
234
11
172
21
234
0
LINE
8
BLACK_POCKET
10
172
20
234
11
172
21
239.5
0
LINE
8
BLACK_POCKET
10
172
20
239.5
11
166.5
21
239.5
0
LINE
8
BLACK_POCKET
10
166.5
20
239.5
11
166.5
21
234
0
LINE
8
BLACK_POCKET
10
234
20
272.5
11
239.5
21
272.5
0
LINE
8
BLACK_POCKET
10
239.5
20
272.5
11
239.5
21
278
0
LINE
8
BLACK_POCKET
10
239.5
20
278
11
234
21
278
0
LINE
8
BLACK_POCKET
10
234
20
278
11
234
21
272.5
0
LINE
8
BLACK_POCKET
10
239.5
20
272.5
11
245
21
272.5
0
LINE
8
BLACK_POCKET
10
245
20
272.5
11
245
21
278
0
LINE
8
BLACK_POCKET
10
245
20
278
11
239.5
21
278
0
LINE
8
BLACK_POCKET
10
239.5
20
278
11
239.5
21
272.5
0
LINE
8
BLACK_POCKET
10
245
20
272.5
11
250.5
21
272.5
0
LINE
8
BLACK_POCKET
10
250.5
20
272.5
11
250.5
21
278
0
LINE
8
BLACK_POCKET
10
250.5
20
278
11
245
21
278
0
LINE
8
BLACK_POCKET
10
245
20
278
11
245
21
272.5
0
LINE
8
BLACK_POCKET
10
250.5
20
272.5
11
256
21
272.5
0
LINE
8
BLACK_POCKET
10
256
20
272.5
11
256
21
278
0
LINE
8
BLACK_POCKET
10
256
20
278
11
250.5
21
278
0
LINE
8
BLACK_POCKET
10
250.5
20
278
11
250.5
21
272.5
0
LINE
8
BLACK_POCKET
10
256
20
272.5
11
261.5
21
272.5
0
LINE
8
BLACK_POCKET
10
261.5
20
272.5
11
261.5
21
278
0
LINE
8
BLACK_POCKET
10
261.5
20
278
11
256
21
278
0
LINE
8
BLACK_POCKET
10
256
20
278
11
256
21
272.5
0
LINE
8
BLACK_POCKET
10
261.5
20
272.5
11
267
21
272.5
0
LINE
8
BLACK_POCKET
10
267
20
272.5
11
267
21
278
0
LINE
8
BLACK_POCKET
10
267
20
278
11
261.5
21
278
0
LINE
8
BLACK_POCKET
10
261.5
20
278
11
261.5
21
272.5
0
LINE
8
BLACK_POCKET
10
267
20
272.5
11
272.5
21
272.5
0
LINE
8
BLACK_POCKET
10
272.5
20
272.5
11
272.5
21
278
0
LINE
8
BLACK_POCKET
10
272.5
20
278
11
267
21
278
0
LINE
8
BLACK_POCKET
10
267
20
278
11
267
21
272.5
0
LINE
8
BLACK_POCKET
10
272.5
20
272.5
11
278
21
272.5
0
LINE
8
BLACK_POCKET
10
278
20
272.5
11
278
21
278
0
LINE
8
BLACK_POCKET
10
278
20
278
11
272.5
21
278
0
LINE
8
BLACK_POCKET
10
272.5
20
278
11
272.5
21
272.5
0
LINE
8
BLACK_POCKET
10
234
20
267
11
239.5
21
267
0
LINE
8
BLACK_POCKET
10
239.5
20
267
11
239.5
21
272.5
0
LINE
8
BLACK_POCKET
10
239.5
20
272.5
11
234
21
272.5
0
LINE
8
BLACK_POCKET
10
234
20
272.5
11
234
21
267
0
LINE
8
BLACK_POCKET
10
245
20
267
11
250.5
21
267
0
LINE
8
BLACK_POCKET
10
250.5
20
267
11
250.5
21
272.5
0
LINE
8
BLACK_POCKET
10
250.5
20
272.5
11
245
21
272.5
0
LINE
8
BLACK_POCKET
10
245
20
272.5
11
245
21
267
0
LINE
8
BLACK_POCKET
10
267
20
267
11
272.5
21
267
0
LINE
8
BLACK_POCKET
10
272.5
20
267
11
272.5
21
272.5
0
LINE
8
BLACK_POCKET
10
272.5
20
272.5
11
267
21
272.5
0
LINE
8
BLACK_POCKET
10
267
20
272.5
11
267
21
267
0
LINE
8
BLACK_POCKET
10
272.5
20
267
11
278
21
267
0
LINE
8
BLACK_POCKET
10
278
20
267
11
278
21
272.5
0
LINE
8
BLACK_POCKET
10
278
20
272.5
11
272.5
21
272.5
0
LINE
8
BLACK_POCKET
10
272.5
20
272.5
11
272.5
21
267
0
LINE
8
BLACK_POCKET
10
234
20
261.5
11
239.5
21
261.5
0
LINE
8
BLACK_POCKET
10
239.5
20
261.5
11
239.5
21
267
0
LINE
8
BLACK_POCKET
10
239.5
20
267
11
234
21
267
0
LINE
8
BLACK_POCKET
10
234
20
267
11
234
21
261.5
0
LINE
8
BLACK_POCKET
10
250.5
20
261.5
11
256
21
261.5
0
LINE
8
BLACK_POCKET
10
256
20
261.5
11
256
21
267
0
LINE
8
BLACK_POCKET
10
256
20
267
11
250.5
21
267
0
LINE
8
BLACK_POCKET
10
250.5
20
267
11
250.5
21
261.5
0
LINE
8
BLACK_POCKET
10
261.5
20
261.5
11
267
21
261.5
0
LINE
8
BLACK_POCKET
10
267
20
261.5
11
267
21
267
0
LINE
8
BLACK_POCKET
10
267
20
267
11
261.5
21
267
0
LINE
8
BLACK_POCKET
10
261.5
20
267
11
261.5
21
261.5
0
LINE
8
BLACK_POCKET
10
272.5
20
261.5
11
278
21
261.5
0
LINE
8
BLACK_POCKET
10
278
20
261.5
11
278
21
267
0
LINE
8
BLACK_POCKET
10
278
20
267
11
272.5
21
267
0
LINE
8
BLACK_POCKET
10
272.5
20
267
11
272.5
21
261.5
0
LINE
8
BLACK_POCKET
10
234
20
256
11
239.5
21
256
0
LINE
8
BLACK_POCKET
10
239.5
20
256
11
239.5
21
261.5
0
LINE
8
BLACK_POCKET
10
239.5
20
261.5
11
234
21
261.5
0
LINE
8
BLACK_POCKET
10
234
20
261.5
11
234
21
256
0
LINE
8
BLACK_POCKET
10
239.5
20
256
11
245
21
256
0
LINE
8
BLACK_POCKET
10
245
20
256
11
245
21
261.5
0
LINE
8
BLACK_POCKET
10
245
20
261.5
11
239.5
21
261.5
0
LINE
8
BLACK_POCKET
10
239.5
20
261.5
11
239.5
21
256
0
LINE
8
BLACK_POCKET
10
245
20
256
11
250.5
21
256
0
LINE
8
BLACK_POCKET
10
250.5
20
256
11
250.5
21
261.5
0
LINE
8
BLACK_POCKET
10
250.5
20
261.5
11
245
21
261.5
0
LINE
8
BLACK_POCKET
10
245
20
261.5
11
245
21
256
0
LINE
8
BLACK_POCKET
10
250.5
20
256
11
256
21
256
0
LINE
8
BLACK_POCKET
10
256
20
256
11
256
21
261.5
0
LINE
8
BLACK_POCKET
10
256
20
261.5
11
250.5
21
261.5
0
LINE
8
BLACK_POCKET
10
250.5
20
261.5
11
250.5
21
256
0
LINE
8
BLACK_POCKET
10
272.5
20
256
11
278
21
256
0
LINE
8
BLACK_POCKET
10
278
20
256
11
278
21
261.5
0
LINE
8
BLACK_POCKET
10
278
20
261.5
11
272.5
21
261.5
0
LINE
8
BLACK_POCKET
10
272.5
20
261.5
11
272.5
21
256
0
LINE
8
BLACK_POCKET
10
234
20
250.5
11
239.5
21
250.5
0
LINE
8
BLACK_POCKET
10
239.5
20
250.5
11
239.5
21
256
0
LINE
8
BLACK_POCKET
10
239.5
20
256
11
234
21
256
0
LINE
8
BLACK_POCKET
10
234
20
256
11
234
21
250.5
0
LINE
8
BLACK_POCKET
10
239.5
20
250.5
11
245
21
250.5
0
LINE
8
BLACK_POCKET
10
245
20
250.5
11
245
21
256
0
LINE
8
BLACK_POCKET
10
245
20
256
11
239.5
21
256
0
LINE
8
BLACK_POCKET
10
239.5
20
256
11
239.5
21
250.5
0
LINE
8
BLACK_POCKET
10
250.5
20
250.5
11
256
21
250.5
0
LINE
8
BLACK_POCKET
10
256
20
250.5
11
256
21
256
0
LINE
8
BLACK_POCKET
10
256
20
256
11
250.5
21
256
0
LINE
8
BLACK_POCKET
10
250.5
20
256
11
250.5
21
250.5
0
LINE
8
BLACK_POCKET
10
256
20
250.5
11
261.5
21
250.5
0
LINE
8
BLACK_POCKET
10
261.5
20
250.5
11
261.5
21
256
0
LINE
8
BLACK_POCKET
10
261.5
20
256
11
256
21
256
0
LINE
8
BLACK_POCKET
10
256
20
256
11
256
21
250.5
0
LINE
8
BLACK_POCKET
10
267
20
250.5
11
272.5
21
250.5
0
LINE
8
BLACK_POCKET
10
272.5
20
250.5
11
272.5
21
256
0
LINE
8
BLACK_POCKET
10
272.5
20
256
11
267
21
256
0
LINE
8
BLACK_POCKET
10
267
20
256
11
267
21
250.5
0
LINE
8
BLACK_POCKET
10
272.5
20
250.5
11
278
21
250.5
0
LINE
8
BLACK_POCKET
10
278
20
250.5
11
278
21
256
0
LINE
8
BLACK_POCKET
10
278
20
256
11
272.5
21
256
0
LINE
8
BLACK_POCKET
10
272.5
20
256
11
272.5
21
250.5
0
LINE
8
BLACK_POCKET
10
234
20
245
11
239.5
21
245
0
LINE
8
BLACK_POCKET
10
239.5
20
245
11
239.5
21
250.5
0
LINE
8
BLACK_POCKET
10
239.5
20
250.5
11
234
21
250.5
0
LINE
8
BLACK_POCKET
10
234
20
250.5
11
234
21
245
0
LINE
8
BLACK_POCKET
10
239.5
20
245
11
245
21
245
0
LINE
8
BLACK_POCKET
10
245
20
245
11
245
21
250.5
0
LINE
8
BLACK_POCKET
10
245
20
250.5
11
239.5
21
250.5
0
LINE
8
BLACK_POCKET
10
239.5
20
250.5
11
239.5
21
245
0
LINE
8
BLACK_POCKET
10
250.5
20
245
11
256
21
245
0
LINE
8
BLACK_POCKET
10
256
20
245
11
256
21
250.5
0
LINE
8
BLACK_POCKET
10
256
20
250.5
11
250.5
21
250.5
0
LINE
8
BLACK_POCKET
10
250.5
20
250.5
11
250.5
21
245
0
LINE
8
BLACK_POCKET
10
272.5
20
245
11
278
21
245
0
LINE
8
BLACK_POCKET
10
278
20
245
11
278
21
250.5
0
LINE
8
BLACK_POCKET
10
278
20
250.5
11
272.5
21
250.5
0
LINE
8
BLACK_POCKET
10
272.5
20
250.5
11
272.5
21
245
0
LINE
8
BLACK_POCKET
10
234
20
239.5
11
239.5
21
239.5
0
LINE
8
BLACK_POCKET
10
239.5
20
239.5
11
239.5
21
245
0
LINE
8
BLACK_POCKET
10
239.5
20
245
11
234
21
245
0
LINE
8
BLACK_POCKET
10
234
20
245
11
234
21
239.5
0
LINE
8
BLACK_POCKET
10
245
20
239.5
11
250.5
21
239.5
0
LINE
8
BLACK_POCKET
10
250.5
20
239.5
11
250.5
21
245
0
LINE
8
BLACK_POCKET
10
250.5
20
245
11
245
21
245
0
LINE
8
BLACK_POCKET
10
245
20
245
11
245
21
239.5
0
LINE
8
BLACK_POCKET
10
250.5
20
239.5
11
256
21
239.5
0
LINE
8
BLACK_POCKET
10
256
20
239.5
11
256
21
245
0
LINE
8
BLACK_POCKET
10
256
20
245
11
250.5
21
245
0
LINE
8
BLACK_POCKET
10
250.5
20
245
11
250.5
21
239.5
0
LINE
8
BLACK_POCKET
10
272.5
20
239.5
11
278
21
239.5
0
LINE
8
BLACK_POCKET
10
278
20
239.5
11
278
21
245
0
LINE
8
BLACK_POCKET
10
278
20
245
11
272.5
21
245
0
LINE
8
BLACK_POCKET
10
272.5
20
245
11
272.5
21
239.5
0
LINE
8
BLACK_POCKET
10
234
20
234
11
239.5
21
234
0
LINE
8
BLACK_POCKET
10
239.5
20
234
11
239.5
21
239.5
0
LINE
8
BLACK_POCKET
10
239.5
20
239.5
11
234
21
239.5
0
LINE
8
BLACK_POCKET
10
234
20
239.5
11
234
21
234
0
LINE
8
BLACK_POCKET
10
239.5
20
234
11
245
21
234
0
LINE
8
BLACK_POCKET
10
245
20
234
11
245
21
239.5
0
LINE
8
BLACK_POCKET
10
245
20
239.5
11
239.5
21
239.5
0
LINE
8
BLACK_POCKET
10
239.5
20
239.5
11
239.5
21
234
0
LINE
8
BLACK_POCKET
10
245
20
234
11
250.5
21
234
0
LINE
8
BLACK_POCKET
10
250.5
20
234
11
250.5
21
239.5
0
LINE
8
BLACK_POCKET
10
250.5
20
239.5
11
245
21
239.5
0
LINE
8
BLACK_POCKET
10
245
20
239.5
11
245
21
234
0
LINE
8
BLACK_POCKET
10
250.5
20
234
11
256
21
234
0
LINE
8
BLACK_POCKET
10
256
20
234
11
256
21
239.5
0
LINE
8
BLACK_POCKET
10
256
20
239.5
11
250.5
21
239.5
0
LINE
8
BLACK_POCKET
10
250.5
20
239.5
11
250.5
21
234
0
LINE
8
BLACK_POCKET
10
256
20
234
11
261.5
21
234
0
LINE
8
BLACK_POCKET
10
261.5
20
234
11
261.5
21
239.5
0
LINE
8
BLACK_POCKET
10
261.5
20
239.5
11
256
21
239.5
0
LINE
8
BLACK_POCKET
10
256
20
239.5
11
256
21
234
0
LINE
8
BLACK_POCKET
10
261.5
20
234
11
267
21
234
0
LINE
8
BLACK_POCKET
10
267
20
234
11
267
21
239.5
0
LINE
8
BLACK_POCKET
10
267
20
239.5
11
261.5
21
239.5
0
LINE
8
BLACK_POCKET
10
261.5
20
239.5
11
261.5
21
234
0
LINE
8
BLACK_POCKET
10
267
20
234
11
272.5
21
234
0
LINE
8
BLACK_POCKET
10
272.5
20
234
11
272.5
21
239.5
0
LINE
8
BLACK_POCKET
10
272.5
20
239.5
11
267
21
239.5
0
LINE
8
BLACK_POCKET
10
267
20
239.5
11
267
21
234
0
LINE
8
BLACK_POCKET
10
272.5
20
234
11
278
21
234
0
LINE
8
BLACK_POCKET
10
278
20
234
11
278
21
239.5
0
LINE
8
BLACK_POCKET
10
278
20
239.5
11
272.5
21
239.5
0
LINE
8
BLACK_POCKET
10
272.5
20
239.5
11
272.5
21
234
0
LINE
8
BLACK_POCKET
10
22
20
166.5
11
27.5
21
166.5
0
LINE
8
BLACK_POCKET
10
27.5
20
166.5
11
27.5
21
172
0
LINE
8
BLACK_POCKET
10
27.5
20
172
11
22
21
172
0
LINE
8
BLACK_POCKET
10
22
20
172
11
22
21
166.5
0
LINE
8
BLACK_POCKET
10
27.5
20
166.5
11
33
21
166.5
0
LINE
8
BLACK_POCKET
10
33
20
166.5
11
33
21
172
0
LINE
8
BLACK_POCKET
10
33
20
172
11
27.5
21
172
0
LINE
8
BLACK_POCKET
10
27.5
20
172
11
27.5
21
166.5
0
LINE
8
BLACK_POCKET
10
33
20
166.5
11
38.5
21
166.5
0
LINE
8
BLACK_POCKET
10
38.5
20
166.5
11
38.5
21
172
0
LINE
8
BLACK_POCKET
10
38.5
20
172
11
33
21
172
0
LINE
8
BLACK_POCKET
10
33
20
172
11
33
21
166.5
0
LINE
8
BLACK_POCKET
10
38.5
20
166.5
11
44
21
166.5
0
LINE
8
BLACK_POCKET
10
44
20
166.5
11
44
21
172
0
LINE
8
BLACK_POCKET
10
44
20
172
11
38.5
21
172
0
LINE
8
BLACK_POCKET
10
38.5
20
172
11
38.5
21
166.5
0
LINE
8
BLACK_POCKET
10
44
20
166.5
11
49.5
21
166.5
0
LINE
8
BLACK_POCKET
10
49.5
20
166.5
11
49.5
21
172
0
LINE
8
BLACK_POCKET
10
49.5
20
172
11
44
21
172
0
LINE
8
BLACK_POCKET
10
44
20
172
11
44
21
166.5
0
LINE
8
BLACK_POCKET
10
49.5
20
166.5
11
55
21
166.5
0
LINE
8
BLACK_POCKET
10
55
20
166.5
11
55
21
172
0
LINE
8
BLACK_POCKET
10
55
20
172
11
49.5
21
172
0
LINE
8
BLACK_POCKET
10
49.5
20
172
11
49.5
21
166.5
0
LINE
8
BLACK_POCKET
10
55
20
166.5
11
60.5
21
166.5
0
LINE
8
BLACK_POCKET
10
60.5
20
166.5
11
60.5
21
172
0
LINE
8
BLACK_POCKET
10
60.5
20
172
11
55
21
172
0
LINE
8
BLACK_POCKET
10
55
20
172
11
55
21
166.5
0
LINE
8
BLACK_POCKET
10
60.5
20
166.5
11
66
21
166.5
0
LINE
8
BLACK_POCKET
10
66
20
166.5
11
66
21
172
0
LINE
8
BLACK_POCKET
10
66
20
172
11
60.5
21
172
0
LINE
8
BLACK_POCKET
10
60.5
20
172
11
60.5
21
166.5
0
LINE
8
BLACK_POCKET
10
22
20
161
11
27.5
21
161
0
LINE
8
BLACK_POCKET
10
27.5
20
161
11
27.5
21
166.5
0
LINE
8
BLACK_POCKET
10
27.5
20
166.5
11
22
21
166.5
0
LINE
8
BLACK_POCKET
10
22
20
166.5
11
22
21
161
0
LINE
8
BLACK_POCKET
10
49.5
20
161
11
55
21
161
0
LINE
8
BLACK_POCKET
10
55
20
161
11
55
21
166.5
0
LINE
8
BLACK_POCKET
10
55
20
166.5
11
49.5
21
166.5
0
LINE
8
BLACK_POCKET
10
49.5
20
166.5
11
49.5
21
161
0
LINE
8
BLACK_POCKET
10
60.5
20
161
11
66
21
161
0
LINE
8
BLACK_POCKET
10
66
20
161
11
66
21
166.5
0
LINE
8
BLACK_POCKET
10
66
20
166.5
11
60.5
21
166.5
0
LINE
8
BLACK_POCKET
10
60.5
20
166.5
11
60.5
21
161
0
LINE
8
BLACK_POCKET
10
22
20
155.5
11
27.5
21
155.5
0
LINE
8
BLACK_POCKET
10
27.5
20
155.5
11
27.5
21
161
0
LINE
8
BLACK_POCKET
10
27.5
20
161
11
22
21
161
0
LINE
8
BLACK_POCKET
10
22
20
161
11
22
21
155.5
0
LINE
8
BLACK_POCKET
10
55
20
155.5
11
60.5
21
155.5
0
LINE
8
BLACK_POCKET
10
60.5
20
155.5
11
60.5
21
161
0
LINE
8
BLACK_POCKET
10
60.5
20
161
11
55
21
161
0
LINE
8
BLACK_POCKET
10
55
20
161
11
55
21
155.5
0
LINE
8
BLACK_POCKET
10
60.5
20
155.5
11
66
21
155.5
0
LINE
8
BLACK_POCKET
10
66
20
155.5
11
66
21
161
0
LINE
8
BLACK_POCKET
10
66
20
161
11
60.5
21
161
0
LINE
8
BLACK_POCKET
10
60.5
20
161
11
60.5
21
155.5
0
LINE
8
BLACK_POCKET
10
22
20
150
11
27.5
21
150
0
LINE
8
BLACK_POCKET
10
27.5
20
150
11
27.5
21
155.5
0
LINE
8
BLACK_POCKET
10
27.5
20
155.5
11
22
21
155.5
0
LINE
8
BLACK_POCKET
10
22
20
155.5
11
22
21
150
0
LINE
8
BLACK_POCKET
10
27.5
20
150
11
33
21
150
0
LINE
8
BLACK_POCKET
10
33
20
150
11
33
21
155.5
0
LINE
8
BLACK_POCKET
10
33
20
155.5
11
27.5
21
155.5
0
LINE
8
BLACK_POCKET
10
27.5
20
155.5
11
27.5
21
150
0
LINE
8
BLACK_POCKET
10
33
20
150
11
38.5
21
150
0
LINE
8
BLACK_POCKET
10
38.5
20
150
11
38.5
21
155.5
0
LINE
8
BLACK_POCKET
10
38.5
20
155.5
11
33
21
155.5
0
LINE
8
BLACK_POCKET
10
33
20
155.5
11
33
21
150
0
LINE
8
BLACK_POCKET
10
44
20
150
11
49.5
21
150
0
LINE
8
BLACK_POCKET
10
49.5
20
150
11
49.5
21
155.5
0
LINE
8
BLACK_POCKET
10
49.5
20
155.5
11
44
21
155.5
0
LINE
8
BLACK_POCKET
10
44
20
155.5
11
44
21
150
0
LINE
8
BLACK_POCKET
10
49.5
20
150
11
55
21
150
0
LINE
8
BLACK_POCKET
10
55
20
150
11
55
21
155.5
0
LINE
8
BLACK_POCKET
10
55
20
155.5
11
49.5
21
155.5
0
LINE
8
BLACK_POCKET
10
49.5
20
155.5
11
49.5
21
150
0
LINE
8
BLACK_POCKET
10
60.5
20
150
11
66
21
150
0
LINE
8
BLACK_POCKET
10
66
20
150
11
66
21
155.5
0
LINE
8
BLACK_POCKET
10
66
20
155.5
11
60.5
21
155.5
0
LINE
8
BLACK_POCKET
10
60.5
20
155.5
11
60.5
21
150
0
LINE
8
BLACK_POCKET
10
22
20
144.5
11
27.5
21
144.5
0
LINE
8
BLACK_POCKET
10
27.5
20
144.5
11
27.5
21
150
0
LINE
8
BLACK_POCKET
10
27.5
20
150
11
22
21
150
0
LINE
8
BLACK_POCKET
10
22
20
150
11
22
21
144.5
0
LINE
8
BLACK_POCKET
10
33
20
144.5
11
38.5
21
144.5
0
LINE
8
BLACK_POCKET
10
38.5
20
144.5
11
38.5
21
150
0
LINE
8
BLACK_POCKET
10
38.5
20
150
11
33
21
150
0
LINE
8
BLACK_POCKET
10
33
20
150
11
33
21
144.5
0
LINE
8
BLACK_POCKET
10
38.5
20
144.5
11
44
21
144.5
0
LINE
8
BLACK_POCKET
10
44
20
144.5
11
44
21
150
0
LINE
8
BLACK_POCKET
10
44
20
150
11
38.5
21
150
0
LINE
8
BLACK_POCKET
10
38.5
20
150
11
38.5
21
144.5
0
LINE
8
BLACK_POCKET
10
44
20
144.5
11
49.5
21
144.5
0
LINE
8
BLACK_POCKET
10
49.5
20
144.5
11
49.5
21
150
0
LINE
8
BLACK_POCKET
10
49.5
20
150
11
44
21
150
0
LINE
8
BLACK_POCKET
10
44
20
150
11
44
21
144.5
0
LINE
8
BLACK_POCKET
10
55
20
144.5
11
60.5
21
144.5
0
LINE
8
BLACK_POCKET
10
60.5
20
144.5
11
60.5
21
150
0
LINE
8
BLACK_POCKET
10
60.5
20
150
11
55
21
150
0
LINE
8
BLACK_POCKET
10
55
20
150
11
55
21
144.5
0
LINE
8
BLACK_POCKET
10
60.5
20
144.5
11
66
21
144.5
0
LINE
8
BLACK_POCKET
10
66
20
144.5
11
66
21
150
0
LINE
8
BLACK_POCKET
10
66
20
150
11
60.5
21
150
0
LINE
8
BLACK_POCKET
10
60.5
20
150
11
60.5
21
144.5
0
LINE
8
BLACK_POCKET
10
22
20
139
11
27.5
21
139
0
LINE
8
BLACK_POCKET
10
27.5
20
139
11
27.5
21
144.5
0
LINE
8
BLACK_POCKET
10
27.5
20
144.5
11
22
21
144.5
0
LINE
8
BLACK_POCKET
10
22
20
144.5
11
22
21
139
0
LINE
8
BLACK_POCKET
10
27.5
20
139
11
33
21
139
0
LINE
8
BLACK_POCKET
10
33
20
139
11
33
21
144.5
0
LINE
8
BLACK_POCKET
10
33
20
144.5
11
27.5
21
144.5
0
LINE
8
BLACK_POCKET
10
27.5
20
144.5
11
27.5
21
139
0
LINE
8
BLACK_POCKET
10
44
20
139
11
49.5
21
139
0
LINE
8
BLACK_POCKET
10
49.5
20
139
11
49.5
21
144.5
0
LINE
8
BLACK_POCKET
10
49.5
20
144.5
11
44
21
144.5
0
LINE
8
BLACK_POCKET
10
44
20
144.5
11
44
21
139
0
LINE
8
BLACK_POCKET
10
49.5
20
139
11
55
21
139
0
LINE
8
BLACK_POCKET
10
55
20
139
11
55
21
144.5
0
LINE
8
BLACK_POCKET
10
55
20
144.5
11
49.5
21
144.5
0
LINE
8
BLACK_POCKET
10
49.5
20
144.5
11
49.5
21
139
0
LINE
8
BLACK_POCKET
10
60.5
20
139
11
66
21
139
0
LINE
8
BLACK_POCKET
10
66
20
139
11
66
21
144.5
0
LINE
8
BLACK_POCKET
10
66
20
144.5
11
60.5
21
144.5
0
LINE
8
BLACK_POCKET
10
60.5
20
144.5
11
60.5
21
139
0
LINE
8
BLACK_POCKET
10
22
20
133.5
11
27.5
21
133.5
0
LINE
8
BLACK_POCKET
10
27.5
20
133.5
11
27.5
21
139
0
LINE
8
BLACK_POCKET
10
27.5
20
139
11
22
21
139
0
LINE
8
BLACK_POCKET
10
22
20
139
11
22
21
133.5
0
LINE
8
BLACK_POCKET
10
27.5
20
133.5
11
33
21
133.5
0
LINE
8
BLACK_POCKET
10
33
20
133.5
11
33
21
139
0
LINE
8
BLACK_POCKET
10
33
20
139
11
27.5
21
139
0
LINE
8
BLACK_POCKET
10
27.5
20
139
11
27.5
21
133.5
0
LINE
8
BLACK_POCKET
10
33
20
133.5
11
38.5
21
133.5
0
LINE
8
BLACK_POCKET
10
38.5
20
133.5
11
38.5
21
139
0
LINE
8
BLACK_POCKET
10
38.5
20
139
11
33
21
139
0
LINE
8
BLACK_POCKET
10
33
20
139
11
33
21
133.5
0
LINE
8
BLACK_POCKET
10
38.5
20
133.5
11
44
21
133.5
0
LINE
8
BLACK_POCKET
10
44
20
133.5
11
44
21
139
0
LINE
8
BLACK_POCKET
10
44
20
139
11
38.5
21
139
0
LINE
8
BLACK_POCKET
10
38.5
20
139
11
38.5
21
133.5
0
LINE
8
BLACK_POCKET
10
44
20
133.5
11
49.5
21
133.5
0
LINE
8
BLACK_POCKET
10
49.5
20
133.5
11
49.5
21
139
0
LINE
8
BLACK_POCKET
10
49.5
20
139
11
44
21
139
0
LINE
8
BLACK_POCKET
10
44
20
139
11
44
21
133.5
0
LINE
8
BLACK_POCKET
10
49.5
20
133.5
11
55
21
133.5
0
LINE
8
BLACK_POCKET
10
55
20
133.5
11
55
21
139
0
LINE
8
BLACK_POCKET
10
55
20
139
11
49.5
21
139
0
LINE
8
BLACK_POCKET
10
49.5
20
139
11
49.5
21
133.5
0
LINE
8
BLACK_POCKET
10
60.5
20
133.5
11
66
21
133.5
0
LINE
8
BLACK_POCKET
10
66
20
133.5
11
66
21
139
0
LINE
8
BLACK_POCKET
10
66
20
139
11
60.5
21
139
0
LINE
8
BLACK_POCKET
10
60.5
20
139
11
60.5
21
133.5
0
LINE
8
BLACK_POCKET
10
22
20
128
11
27.5
21
128
0
LINE
8
BLACK_POCKET
10
27.5
20
128
11
27.5
21
133.5
0
LINE
8
BLACK_POCKET
10
27.5
20
133.5
11
22
21
133.5
0
LINE
8
BLACK_POCKET
10
22
20
133.5
11
22
21
128
0
LINE
8
BLACK_POCKET
10
27.5
20
128
11
33
21
128
0
LINE
8
BLACK_POCKET
10
33
20
128
11
33
21
133.5
0
LINE
8
BLACK_POCKET
10
33
20
133.5
11
27.5
21
133.5
0
LINE
8
BLACK_POCKET
10
27.5
20
133.5
11
27.5
21
128
0
LINE
8
BLACK_POCKET
10
33
20
128
11
38.5
21
128
0
LINE
8
BLACK_POCKET
10
38.5
20
128
11
38.5
21
133.5
0
LINE
8
BLACK_POCKET
10
38.5
20
133.5
11
33
21
133.5
0
LINE
8
BLACK_POCKET
10
33
20
133.5
11
33
21
128
0
LINE
8
BLACK_POCKET
10
38.5
20
128
11
44
21
128
0
LINE
8
BLACK_POCKET
10
44
20
128
11
44
21
133.5
0
LINE
8
BLACK_POCKET
10
44
20
133.5
11
38.5
21
133.5
0
LINE
8
BLACK_POCKET
10
38.5
20
133.5
11
38.5
21
128
0
LINE
8
BLACK_POCKET
10
44
20
128
11
49.5
21
128
0
LINE
8
BLACK_POCKET
10
49.5
20
128
11
49.5
21
133.5
0
LINE
8
BLACK_POCKET
10
49.5
20
133.5
11
44
21
133.5
0
LINE
8
BLACK_POCKET
10
44
20
133.5
11
44
21
128
0
LINE
8
BLACK_POCKET
10
49.5
20
128
11
55
21
128
0
LINE
8
BLACK_POCKET
10
55
20
128
11
55
21
133.5
0
LINE
8
BLACK_POCKET
10
55
20
133.5
11
49.5
21
133.5
0
LINE
8
BLACK_POCKET
10
49.5
20
133.5
11
49.5
21
128
0
LINE
8
BLACK_POCKET
10
55
20
128
11
60.5
21
128
0
LINE
8
BLACK_POCKET
10
60.5
20
128
11
60.5
21
133.5
0
LINE
8
BLACK_POCKET
10
60.5
20
133.5
11
55
21
133.5
0
LINE
8
BLACK_POCKET
10
55
20
133.5
11
55
21
128
0
LINE
8
BLACK_POCKET
10
60.5
20
128
11
66
21
128
0
LINE
8
BLACK_POCKET
10
66
20
128
11
66
21
133.5
0
LINE
8
BLACK_POCKET
10
66
20
133.5
11
60.5
21
133.5
0
LINE
8
BLACK_POCKET
10
60.5
20
133.5
11
60.5
21
128
0
LINE
8
BLACK_POCKET
10
234
20
166.5
11
239.5
21
166.5
0
LINE
8
BLACK_POCKET
10
239.5
20
166.5
11
239.5
21
172
0
LINE
8
BLACK_POCKET
10
239.5
20
172
11
234
21
172
0
LINE
8
BLACK_POCKET
10
234
20
172
11
234
21
166.5
0
LINE
8
BLACK_POCKET
10
239.5
20
166.5
11
245
21
166.5
0
LINE
8
BLACK_POCKET
10
245
20
166.5
11
245
21
172
0
LINE
8
BLACK_POCKET
10
245
20
172
11
239.5
21
172
0
LINE
8
BLACK_POCKET
10
239.5
20
172
11
239.5
21
166.5
0
LINE
8
BLACK_POCKET
10
245
20
166.5
11
250.5
21
166.5
0
LINE
8
BLACK_POCKET
10
250.5
20
166.5
11
250.5
21
172
0
LINE
8
BLACK_POCKET
10
250.5
20
172
11
245
21
172
0
LINE
8
BLACK_POCKET
10
245
20
172
11
245
21
166.5
0
LINE
8
BLACK_POCKET
10
250.5
20
166.5
11
256
21
166.5
0
LINE
8
BLACK_POCKET
10
256
20
166.5
11
256
21
172
0
LINE
8
BLACK_POCKET
10
256
20
172
11
250.5
21
172
0
LINE
8
BLACK_POCKET
10
250.5
20
172
11
250.5
21
166.5
0
LINE
8
BLACK_POCKET
10
256
20
166.5
11
261.5
21
166.5
0
LINE
8
BLACK_POCKET
10
261.5
20
166.5
11
261.5
21
172
0
LINE
8
BLACK_POCKET
10
261.5
20
172
11
256
21
172
0
LINE
8
BLACK_POCKET
10
256
20
172
11
256
21
166.5
0
LINE
8
BLACK_POCKET
10
261.5
20
166.5
11
267
21
166.5
0
LINE
8
BLACK_POCKET
10
267
20
166.5
11
267
21
172
0
LINE
8
BLACK_POCKET
10
267
20
172
11
261.5
21
172
0
LINE
8
BLACK_POCKET
10
261.5
20
172
11
261.5
21
166.5
0
LINE
8
BLACK_POCKET
10
267
20
166.5
11
272.5
21
166.5
0
LINE
8
BLACK_POCKET
10
272.5
20
166.5
11
272.5
21
172
0
LINE
8
BLACK_POCKET
10
272.5
20
172
11
267
21
172
0
LINE
8
BLACK_POCKET
10
267
20
172
11
267
21
166.5
0
LINE
8
BLACK_POCKET
10
272.5
20
166.5
11
278
21
166.5
0
LINE
8
BLACK_POCKET
10
278
20
166.5
11
278
21
172
0
LINE
8
BLACK_POCKET
10
278
20
172
11
272.5
21
172
0
LINE
8
BLACK_POCKET
10
272.5
20
172
11
272.5
21
166.5
0
LINE
8
BLACK_POCKET
10
234
20
161
11
239.5
21
161
0
LINE
8
BLACK_POCKET
10
239.5
20
161
11
239.5
21
166.5
0
LINE
8
BLACK_POCKET
10
239.5
20
166.5
11
234
21
166.5
0
LINE
8
BLACK_POCKET
10
234
20
166.5
11
234
21
161
0
LINE
8
BLACK_POCKET
10
245
20
161
11
250.5
21
161
0
LINE
8
BLACK_POCKET
10
250.5
20
161
11
250.5
21
166.5
0
LINE
8
BLACK_POCKET
10
250.5
20
166.5
11
245
21
166.5
0
LINE
8
BLACK_POCKET
10
245
20
166.5
11
245
21
161
0
LINE
8
BLACK_POCKET
10
250.5
20
161
11
256
21
161
0
LINE
8
BLACK_POCKET
10
256
20
161
11
256
21
166.5
0
LINE
8
BLACK_POCKET
10
256
20
166.5
11
250.5
21
166.5
0
LINE
8
BLACK_POCKET
10
250.5
20
166.5
11
250.5
21
161
0
LINE
8
BLACK_POCKET
10
256
20
161
11
261.5
21
161
0
LINE
8
BLACK_POCKET
10
261.5
20
161
11
261.5
21
166.5
0
LINE
8
BLACK_POCKET
10
261.5
20
166.5
11
256
21
166.5
0
LINE
8
BLACK_POCKET
10
256
20
166.5
11
256
21
161
0
LINE
8
BLACK_POCKET
10
261.5
20
161
11
267
21
161
0
LINE
8
BLACK_POCKET
10
267
20
161
11
267
21
166.5
0
LINE
8
BLACK_POCKET
10
267
20
166.5
11
261.5
21
166.5
0
LINE
8
BLACK_POCKET
10
261.5
20
166.5
11
261.5
21
161
0
LINE
8
BLACK_POCKET
10
267
20
161
11
272.5
21
161
0
LINE
8
BLACK_POCKET
10
272.5
20
161
11
272.5
21
166.5
0
LINE
8
BLACK_POCKET
10
272.5
20
166.5
11
267
21
166.5
0
LINE
8
BLACK_POCKET
10
267
20
166.5
11
267
21
161
0
LINE
8
BLACK_POCKET
10
272.5
20
161
11
278
21
161
0
LINE
8
BLACK_POCKET
10
278
20
161
11
278
21
166.5
0
LINE
8
BLACK_POCKET
10
278
20
166.5
11
272.5
21
166.5
0
LINE
8
BLACK_POCKET
10
272.5
20
166.5
11
272.5
21
161
0
LINE
8
BLACK_POCKET
10
234
20
155.5
11
239.5
21
155.5
0
LINE
8
BLACK_POCKET
10
239.5
20
155.5
11
239.5
21
161
0
LINE
8
BLACK_POCKET
10
239.5
20
161
11
234
21
161
0
LINE
8
BLACK_POCKET
10
234
20
161
11
234
21
155.5
0
LINE
8
BLACK_POCKET
10
239.5
20
155.5
11
245
21
155.5
0
LINE
8
BLACK_POCKET
10
245
20
155.5
11
245
21
161
0
LINE
8
BLACK_POCKET
10
245
20
161
11
239.5
21
161
0
LINE
8
BLACK_POCKET
10
239.5
20
161
11
239.5
21
155.5
0
LINE
8
BLACK_POCKET
10
272.5
20
155.5
11
278
21
155.5
0
LINE
8
BLACK_POCKET
10
278
20
155.5
11
278
21
161
0
LINE
8
BLACK_POCKET
10
278
20
161
11
272.5
21
161
0
LINE
8
BLACK_POCKET
10
272.5
20
161
11
272.5
21
155.5
0
LINE
8
BLACK_POCKET
10
234
20
150
11
239.5
21
150
0
LINE
8
BLACK_POCKET
10
239.5
20
150
11
239.5
21
155.5
0
LINE
8
BLACK_POCKET
10
239.5
20
155.5
11
234
21
155.5
0
LINE
8
BLACK_POCKET
10
234
20
155.5
11
234
21
150
0
LINE
8
BLACK_POCKET
10
250.5
20
150
11
256
21
150
0
LINE
8
BLACK_POCKET
10
256
20
150
11
256
21
155.5
0
LINE
8
BLACK_POCKET
10
256
20
155.5
11
250.5
21
155.5
0
LINE
8
BLACK_POCKET
10
250.5
20
155.5
11
250.5
21
150
0
LINE
8
BLACK_POCKET
10
267
20
150
11
272.5
21
150
0
LINE
8
BLACK_POCKET
10
272.5
20
150
11
272.5
21
155.5
0
LINE
8
BLACK_POCKET
10
272.5
20
155.5
11
267
21
155.5
0
LINE
8
BLACK_POCKET
10
267
20
155.5
11
267
21
150
0
LINE
8
BLACK_POCKET
10
272.5
20
150
11
278
21
150
0
LINE
8
BLACK_POCKET
10
278
20
150
11
278
21
155.5
0
LINE
8
BLACK_POCKET
10
278
20
155.5
11
272.5
21
155.5
0
LINE
8
BLACK_POCKET
10
272.5
20
155.5
11
272.5
21
150
0
LINE
8
BLACK_POCKET
10
234
20
144.5
11
239.5
21
144.5
0
LINE
8
BLACK_POCKET
10
239.5
20
144.5
11
239.5
21
150
0
LINE
8
BLACK_POCKET
10
239.5
20
150
11
234
21
150
0
LINE
8
BLACK_POCKET
10
234
20
150
11
234
21
144.5
0
LINE
8
BLACK_POCKET
10
245
20
144.5
11
250.5
21
144.5
0
LINE
8
BLACK_POCKET
10
250.5
20
144.5
11
250.5
21
150
0
LINE
8
BLACK_POCKET
10
250.5
20
150
11
245
21
150
0
LINE
8
BLACK_POCKET
10
245
20
150
11
245
21
144.5
0
LINE
8
BLACK_POCKET
10
256
20
144.5
11
261.5
21
144.5
0
LINE
8
BLACK_POCKET
10
261.5
20
144.5
11
261.5
21
150
0
LINE
8
BLACK_POCKET
10
261.5
20
150
11
256
21
150
0
LINE
8
BLACK_POCKET
10
256
20
150
11
256
21
144.5
0
LINE
8
BLACK_POCKET
10
261.5
20
144.5
11
267
21
144.5
0
LINE
8
BLACK_POCKET
10
267
20
144.5
11
267
21
150
0
LINE
8
BLACK_POCKET
10
267
20
150
11
261.5
21
150
0
LINE
8
BLACK_POCKET
10
261.5
20
150
11
261.5
21
144.5
0
LINE
8
BLACK_POCKET
10
272.5
20
144.5
11
278
21
144.5
0
LINE
8
BLACK_POCKET
10
278
20
144.5
11
278
21
150
0
LINE
8
BLACK_POCKET
10
278
20
150
11
272.5
21
150
0
LINE
8
BLACK_POCKET
10
272.5
20
150
11
272.5
21
144.5
0
LINE
8
BLACK_POCKET
10
234
20
139
11
239.5
21
139
0
LINE
8
BLACK_POCKET
10
239.5
20
139
11
239.5
21
144.5
0
LINE
8
BLACK_POCKET
10
239.5
20
144.5
11
234
21
144.5
0
LINE
8
BLACK_POCKET
10
234
20
144.5
11
234
21
139
0
LINE
8
BLACK_POCKET
10
245
20
139
11
250.5
21
139
0
LINE
8
BLACK_POCKET
10
250.5
20
139
11
250.5
21
144.5
0
LINE
8
BLACK_POCKET
10
250.5
20
144.5
11
245
21
144.5
0
LINE
8
BLACK_POCKET
10
245
20
144.5
11
245
21
139
0
LINE
8
BLACK_POCKET
10
250.5
20
139
11
256
21
139
0
LINE
8
BLACK_POCKET
10
256
20
139
11
256
21
144.5
0
LINE
8
BLACK_POCKET
10
256
20
144.5
11
250.5
21
144.5
0
LINE
8
BLACK_POCKET
10
250.5
20
144.5
11
250.5
21
139
0
LINE
8
BLACK_POCKET
10
256
20
139
11
261.5
21
139
0
LINE
8
BLACK_POCKET
10
261.5
20
139
11
261.5
21
144.5
0
LINE
8
BLACK_POCKET
10
261.5
20
144.5
11
256
21
144.5
0
LINE
8
BLACK_POCKET
10
256
20
144.5
11
256
21
139
0
LINE
8
BLACK_POCKET
10
261.5
20
139
11
267
21
139
0
LINE
8
BLACK_POCKET
10
267
20
139
11
267
21
144.5
0
LINE
8
BLACK_POCKET
10
267
20
144.5
11
261.5
21
144.5
0
LINE
8
BLACK_POCKET
10
261.5
20
144.5
11
261.5
21
139
0
LINE
8
BLACK_POCKET
10
272.5
20
139
11
278
21
139
0
LINE
8
BLACK_POCKET
10
278
20
139
11
278
21
144.5
0
LINE
8
BLACK_POCKET
10
278
20
144.5
11
272.5
21
144.5
0
LINE
8
BLACK_POCKET
10
272.5
20
144.5
11
272.5
21
139
0
LINE
8
BLACK_POCKET
10
234
20
133.5
11
239.5
21
133.5
0
LINE
8
BLACK_POCKET
10
239.5
20
133.5
11
239.5
21
139
0
LINE
8
BLACK_POCKET
10
239.5
20
139
11
234
21
139
0
LINE
8
BLACK_POCKET
10
234
20
139
11
234
21
133.5
0
LINE
8
BLACK_POCKET
10
239.5
20
133.5
11
245
21
133.5
0
LINE
8
BLACK_POCKET
10
245
20
133.5
11
245
21
139
0
LINE
8
BLACK_POCKET
10
245
20
139
11
239.5
21
139
0
LINE
8
BLACK_POCKET
10
239.5
20
139
11
239.5
21
133.5
0
LINE
8
BLACK_POCKET
10
250.5
20
133.5
11
256
21
133.5
0
LINE
8
BLACK_POCKET
10
256
20
133.5
11
256
21
139
0
LINE
8
BLACK_POCKET
10
256
20
139
11
250.5
21
139
0
LINE
8
BLACK_POCKET
10
250.5
20
139
11
250.5
21
133.5
0
LINE
8
BLACK_POCKET
10
261.5
20
133.5
11
267
21
133.5
0
LINE
8
BLACK_POCKET
10
267
20
133.5
11
267
21
139
0
LINE
8
BLACK_POCKET
10
267
20
139
11
261.5
21
139
0
LINE
8
BLACK_POCKET
10
261.5
20
139
11
261.5
21
133.5
0
LINE
8
BLACK_POCKET
10
272.5
20
133.5
11
278
21
133.5
0
LINE
8
BLACK_POCKET
10
278
20
133.5
11
278
21
139
0
LINE
8
BLACK_POCKET
10
278
20
139
11
272.5
21
139
0
LINE
8
BLACK_POCKET
10
272.5
20
139
11
272.5
21
133.5
0
LINE
8
BLACK_POCKET
10
234
20
128
11
239.5
21
128
0
LINE
8
BLACK_POCKET
10
239.5
20
128
11
239.5
21
133.5
0
LINE
8
BLACK_POCKET
10
239.5
20
133.5
11
234
21
133.5
0
LINE
8
BLACK_POCKET
10
234
20
133.5
11
234
21
128
0
LINE
8
BLACK_POCKET
10
239.5
20
128
11
245
21
128
0
LINE
8
BLACK_POCKET
10
245
20
128
11
245
21
133.5
0
LINE
8
BLACK_POCKET
10
245
20
133.5
11
239.5
21
133.5
0
LINE
8
BLACK_POCKET
10
239.5
20
133.5
11
239.5
21
128
0
LINE
8
BLACK_POCKET
10
245
20
128
11
250.5
21
128
0
LINE
8
BLACK_POCKET
10
250.5
20
128
11
250.5
21
133.5
0
LINE
8
BLACK_POCKET
10
250.5
20
133.5
11
245
21
133.5
0
LINE
8
BLACK_POCKET
10
245
20
133.5
11
245
21
128
0
LINE
8
BLACK_POCKET
10
250.5
20
128
11
256
21
128
0
LINE
8
BLACK_POCKET
10
256
20
128
11
256
21
133.5
0
LINE
8
BLACK_POCKET
10
256
20
133.5
11
250.5
21
133.5
0
LINE
8
BLACK_POCKET
10
250.5
20
133.5
11
250.5
21
128
0
LINE
8
BLACK_POCKET
10
256
20
128
11
261.5
21
128
0
LINE
8
BLACK_POCKET
10
261.5
20
128
11
261.5
21
133.5
0
LINE
8
BLACK_POCKET
10
261.5
20
133.5
11
256
21
133.5
0
LINE
8
BLACK_POCKET
10
256
20
133.5
11
256
21
128
0
LINE
8
BLACK_POCKET
10
261.5
20
128
11
267
21
128
0
LINE
8
BLACK_POCKET
10
267
20
128
11
267
21
133.5
0
LINE
8
BLACK_POCKET
10
267
20
133.5
11
261.5
21
133.5
0
LINE
8
BLACK_POCKET
10
261.5
20
133.5
11
261.5
21
128
0
LINE
8
BLACK_POCKET
10
267
20
128
11
272.5
21
128
0
LINE
8
BLACK_POCKET
10
272.5
20
128
11
272.5
21
133.5
0
LINE
8
BLACK_POCKET
10
272.5
20
133.5
11
267
21
133.5
0
LINE
8
BLACK_POCKET
10
267
20
133.5
11
267
21
128
0
LINE
8
BLACK_POCKET
10
272.5
20
128
11
278
21
128
0
LINE
8
BLACK_POCKET
10
278
20
128
11
278
21
133.5
0
LINE
8
BLACK_POCKET
10
278
20
133.5
11
272.5
21
133.5
0
LINE
8
BLACK_POCKET
10
272.5
20
133.5
11
272.5
21
128
0
LINE
8
BLACK_POCKET
10
22
20
60.5
11
27.5
21
60.5
0
LINE
8
BLACK_POCKET
10
27.5
20
60.5
11
27.5
21
66
0
LINE
8
BLACK_POCKET
10
27.5
20
66
11
22
21
66
0
LINE
8
BLACK_POCKET
10
22
20
66
11
22
21
60.5
0
LINE
8
BLACK_POCKET
10
27.5
20
60.5
11
33
21
60.5
0
LINE
8
BLACK_POCKET
10
33
20
60.5
11
33
21
66
0
LINE
8
BLACK_POCKET
10
33
20
66
11
27.5
21
66
0
LINE
8
BLACK_POCKET
10
27.5
20
66
11
27.5
21
60.5
0
LINE
8
BLACK_POCKET
10
33
20
60.5
11
38.5
21
60.5
0
LINE
8
BLACK_POCKET
10
38.5
20
60.5
11
38.5
21
66
0
LINE
8
BLACK_POCKET
10
38.5
20
66
11
33
21
66
0
LINE
8
BLACK_POCKET
10
33
20
66
11
33
21
60.5
0
LINE
8
BLACK_POCKET
10
38.5
20
60.5
11
44
21
60.5
0
LINE
8
BLACK_POCKET
10
44
20
60.5
11
44
21
66
0
LINE
8
BLACK_POCKET
10
44
20
66
11
38.5
21
66
0
LINE
8
BLACK_POCKET
10
38.5
20
66
11
38.5
21
60.5
0
LINE
8
BLACK_POCKET
10
44
20
60.5
11
49.5
21
60.5
0
LINE
8
BLACK_POCKET
10
49.5
20
60.5
11
49.5
21
66
0
LINE
8
BLACK_POCKET
10
49.5
20
66
11
44
21
66
0
LINE
8
BLACK_POCKET
10
44
20
66
11
44
21
60.5
0
LINE
8
BLACK_POCKET
10
49.5
20
60.5
11
55
21
60.5
0
LINE
8
BLACK_POCKET
10
55
20
60.5
11
55
21
66
0
LINE
8
BLACK_POCKET
10
55
20
66
11
49.5
21
66
0
LINE
8
BLACK_POCKET
10
49.5
20
66
11
49.5
21
60.5
0
LINE
8
BLACK_POCKET
10
55
20
60.5
11
60.5
21
60.5
0
LINE
8
BLACK_POCKET
10
60.5
20
60.5
11
60.5
21
66
0
LINE
8
BLACK_POCKET
10
60.5
20
66
11
55
21
66
0
LINE
8
BLACK_POCKET
10
55
20
66
11
55
21
60.5
0
LINE
8
BLACK_POCKET
10
60.5
20
60.5
11
66
21
60.5
0
LINE
8
BLACK_POCKET
10
66
20
60.5
11
66
21
66
0
LINE
8
BLACK_POCKET
10
66
20
66
11
60.5
21
66
0
LINE
8
BLACK_POCKET
10
60.5
20
66
11
60.5
21
60.5
0
LINE
8
BLACK_POCKET
10
22
20
55
11
27.5
21
55
0
LINE
8
BLACK_POCKET
10
27.5
20
55
11
27.5
21
60.5
0
LINE
8
BLACK_POCKET
10
27.5
20
60.5
11
22
21
60.5
0
LINE
8
BLACK_POCKET
10
22
20
60.5
11
22
21
55
0
LINE
8
BLACK_POCKET
10
27.5
20
55
11
33
21
55
0
LINE
8
BLACK_POCKET
10
33
20
55
11
33
21
60.5
0
LINE
8
BLACK_POCKET
10
33
20
60.5
11
27.5
21
60.5
0
LINE
8
BLACK_POCKET
10
27.5
20
60.5
11
27.5
21
55
0
LINE
8
BLACK_POCKET
10
33
20
55
11
38.5
21
55
0
LINE
8
BLACK_POCKET
10
38.5
20
55
11
38.5
21
60.5
0
LINE
8
BLACK_POCKET
10
38.5
20
60.5
11
33
21
60.5
0
LINE
8
BLACK_POCKET
10
33
20
60.5
11
33
21
55
0
LINE
8
BLACK_POCKET
10
44
20
55
11
49.5
21
55
0
LINE
8
BLACK_POCKET
10
49.5
20
55
11
49.5
21
60.5
0
LINE
8
BLACK_POCKET
10
49.5
20
60.5
11
44
21
60.5
0
LINE
8
BLACK_POCKET
10
44
20
60.5
11
44
21
55
0
LINE
8
BLACK_POCKET
10
49.5
20
55
11
55
21
55
0
LINE
8
BLACK_POCKET
10
55
20
55
11
55
21
60.5
0
LINE
8
BLACK_POCKET
10
55
20
60.5
11
49.5
21
60.5
0
LINE
8
BLACK_POCKET
10
49.5
20
60.5
11
49.5
21
55
0
LINE
8
BLACK_POCKET
10
55
20
55
11
60.5
21
55
0
LINE
8
BLACK_POCKET
10
60.5
20
55
11
60.5
21
60.5
0
LINE
8
BLACK_POCKET
10
60.5
20
60.5
11
55
21
60.5
0
LINE
8
BLACK_POCKET
10
55
20
60.5
11
55
21
55
0
LINE
8
BLACK_POCKET
10
60.5
20
55
11
66
21
55
0
LINE
8
BLACK_POCKET
10
66
20
55
11
66
21
60.5
0
LINE
8
BLACK_POCKET
10
66
20
60.5
11
60.5
21
60.5
0
LINE
8
BLACK_POCKET
10
60.5
20
60.5
11
60.5
21
55
0
LINE
8
BLACK_POCKET
10
22
20
49.5
11
27.5
21
49.5
0
LINE
8
BLACK_POCKET
10
27.5
20
49.5
11
27.5
21
55
0
LINE
8
BLACK_POCKET
10
27.5
20
55
11
22
21
55
0
LINE
8
BLACK_POCKET
10
22
20
55
11
22
21
49.5
0
LINE
8
BLACK_POCKET
10
33
20
49.5
11
38.5
21
49.5
0
LINE
8
BLACK_POCKET
10
38.5
20
49.5
11
38.5
21
55
0
LINE
8
BLACK_POCKET
10
38.5
20
55
11
33
21
55
0
LINE
8
BLACK_POCKET
10
33
20
55
11
33
21
49.5
0
LINE
8
BLACK_POCKET
10
38.5
20
49.5
11
44
21
49.5
0
LINE
8
BLACK_POCKET
10
44
20
49.5
11
44
21
55
0
LINE
8
BLACK_POCKET
10
44
20
55
11
38.5
21
55
0
LINE
8
BLACK_POCKET
10
38.5
20
55
11
38.5
21
49.5
0
LINE
8
BLACK_POCKET
10
49.5
20
49.5
11
55
21
49.5
0
LINE
8
BLACK_POCKET
10
55
20
49.5
11
55
21
55
0
LINE
8
BLACK_POCKET
10
55
20
55
11
49.5
21
55
0
LINE
8
BLACK_POCKET
10
49.5
20
55
11
49.5
21
49.5
0
LINE
8
BLACK_POCKET
10
55
20
49.5
11
60.5
21
49.5
0
LINE
8
BLACK_POCKET
10
60.5
20
49.5
11
60.5
21
55
0
LINE
8
BLACK_POCKET
10
60.5
20
55
11
55
21
55
0
LINE
8
BLACK_POCKET
10
55
20
55
11
55
21
49.5
0
LINE
8
BLACK_POCKET
10
60.5
20
49.5
11
66
21
49.5
0
LINE
8
BLACK_POCKET
10
66
20
49.5
11
66
21
55
0
LINE
8
BLACK_POCKET
10
66
20
55
11
60.5
21
55
0
LINE
8
BLACK_POCKET
10
60.5
20
55
11
60.5
21
49.5
0
LINE
8
BLACK_POCKET
10
22
20
44
11
27.5
21
44
0
LINE
8
BLACK_POCKET
10
27.5
20
44
11
27.5
21
49.5
0
LINE
8
BLACK_POCKET
10
27.5
20
49.5
11
22
21
49.5
0
LINE
8
BLACK_POCKET
10
22
20
49.5
11
22
21
44
0
LINE
8
BLACK_POCKET
10
27.5
20
44
11
33
21
44
0
LINE
8
BLACK_POCKET
10
33
20
44
11
33
21
49.5
0
LINE
8
BLACK_POCKET
10
33
20
49.5
11
27.5
21
49.5
0
LINE
8
BLACK_POCKET
10
27.5
20
49.5
11
27.5
21
44
0
LINE
8
BLACK_POCKET
10
33
20
44
11
38.5
21
44
0
LINE
8
BLACK_POCKET
10
38.5
20
44
11
38.5
21
49.5
0
LINE
8
BLACK_POCKET
10
38.5
20
49.5
11
33
21
49.5
0
LINE
8
BLACK_POCKET
10
33
20
49.5
11
33
21
44
0
LINE
8
BLACK_POCKET
10
38.5
20
44
11
44
21
44
0
LINE
8
BLACK_POCKET
10
44
20
44
11
44
21
49.5
0
LINE
8
BLACK_POCKET
10
44
20
49.5
11
38.5
21
49.5
0
LINE
8
BLACK_POCKET
10
38.5
20
49.5
11
38.5
21
44
0
LINE
8
BLACK_POCKET
10
60.5
20
44
11
66
21
44
0
LINE
8
BLACK_POCKET
10
66
20
44
11
66
21
49.5
0
LINE
8
BLACK_POCKET
10
66
20
49.5
11
60.5
21
49.5
0
LINE
8
BLACK_POCKET
10
60.5
20
49.5
11
60.5
21
44
0
LINE
8
BLACK_POCKET
10
22
20
38.5
11
27.5
21
38.5
0
LINE
8
BLACK_POCKET
10
27.5
20
38.5
11
27.5
21
44
0
LINE
8
BLACK_POCKET
10
27.5
20
44
11
22
21
44
0
LINE
8
BLACK_POCKET
10
22
20
44
11
22
21
38.5
0
LINE
8
BLACK_POCKET
10
27.5
20
38.5
11
33
21
38.5
0
LINE
8
BLACK_POCKET
10
33
20
38.5
11
33
21
44
0
LINE
8
BLACK_POCKET
10
33
20
44
11
27.5
21
44
0
LINE
8
BLACK_POCKET
10
27.5
20
44
11
27.5
21
38.5
0
LINE
8
BLACK_POCKET
10
44
20
38.5
11
49.5
21
38.5
0
LINE
8
BLACK_POCKET
10
49.5
20
38.5
11
49.5
21
44
0
LINE
8
BLACK_POCKET
10
49.5
20
44
11
44
21
44
0
LINE
8
BLACK_POCKET
10
44
20
44
11
44
21
38.5
0
LINE
8
BLACK_POCKET
10
60.5
20
38.5
11
66
21
38.5
0
LINE
8
BLACK_POCKET
10
66
20
38.5
11
66
21
44
0
LINE
8
BLACK_POCKET
10
66
20
44
11
60.5
21
44
0
LINE
8
BLACK_POCKET
10
60.5
20
44
11
60.5
21
38.5
0
LINE
8
BLACK_POCKET
10
22
20
33
11
27.5
21
33
0
LINE
8
BLACK_POCKET
10
27.5
20
33
11
27.5
21
38.5
0
LINE
8
BLACK_POCKET
10
27.5
20
38.5
11
22
21
38.5
0
LINE
8
BLACK_POCKET
10
22
20
38.5
11
22
21
33
0
LINE
8
BLACK_POCKET
10
38.5
20
33
11
44
21
33
0
LINE
8
BLACK_POCKET
10
44
20
33
11
44
21
38.5
0
LINE
8
BLACK_POCKET
10
44
20
38.5
11
38.5
21
38.5
0
LINE
8
BLACK_POCKET
10
38.5
20
38.5
11
38.5
21
33
0
LINE
8
BLACK_POCKET
10
44
20
33
11
49.5
21
33
0
LINE
8
BLACK_POCKET
10
49.5
20
33
11
49.5
21
38.5
0
LINE
8
BLACK_POCKET
10
49.5
20
38.5
11
44
21
38.5
0
LINE
8
BLACK_POCKET
10
44
20
38.5
11
44
21
33
0
LINE
8
BLACK_POCKET
10
49.5
20
33
11
55
21
33
0
LINE
8
BLACK_POCKET
10
55
20
33
11
55
21
38.5
0
LINE
8
BLACK_POCKET
10
55
20
38.5
11
49.5
21
38.5
0
LINE
8
BLACK_POCKET
10
49.5
20
38.5
11
49.5
21
33
0
LINE
8
BLACK_POCKET
10
60.5
20
33
11
66
21
33
0
LINE
8
BLACK_POCKET
10
66
20
33
11
66
21
38.5
0
LINE
8
BLACK_POCKET
10
66
20
38.5
11
60.5
21
38.5
0
LINE
8
BLACK_POCKET
10
60.5
20
38.5
11
60.5
21
33
0
LINE
8
BLACK_POCKET
10
22
20
27.5
11
27.5
21
27.5
0
LINE
8
BLACK_POCKET
10
27.5
20
27.5
11
27.5
21
33
0
LINE
8
BLACK_POCKET
10
27.5
20
33
11
22
21
33
0
LINE
8
BLACK_POCKET
10
22
20
33
11
22
21
27.5
0
LINE
8
BLACK_POCKET
10
27.5
20
27.5
11
33
21
27.5
0
LINE
8
BLACK_POCKET
10
33
20
27.5
11
33
21
33
0
LINE
8
BLACK_POCKET
10
33
20
33
11
27.5
21
33
0
LINE
8
BLACK_POCKET
10
27.5
20
33
11
27.5
21
27.5
0
LINE
8
BLACK_POCKET
10
44
20
27.5
11
49.5
21
27.5
0
LINE
8
BLACK_POCKET
10
49.5
20
27.5
11
49.5
21
33
0
LINE
8
BLACK_POCKET
10
49.5
20
33
11
44
21
33
0
LINE
8
BLACK_POCKET
10
44
20
33
11
44
21
27.5
0
LINE
8
BLACK_POCKET
10
49.5
20
27.5
11
55
21
27.5
0
LINE
8
BLACK_POCKET
10
55
20
27.5
11
55
21
33
0
LINE
8
BLACK_POCKET
10
55
20
33
11
49.5
21
33
0
LINE
8
BLACK_POCKET
10
49.5
20
33
11
49.5
21
27.5
0
LINE
8
BLACK_POCKET
10
60.5
20
27.5
11
66
21
27.5
0
LINE
8
BLACK_POCKET
10
66
20
27.5
11
66
21
33
0
LINE
8
BLACK_POCKET
10
66
20
33
11
60.5
21
33
0
LINE
8
BLACK_POCKET
10
60.5
20
33
11
60.5
21
27.5
0
LINE
8
BLACK_POCKET
10
22
20
22
11
27.5
21
22
0
LINE
8
BLACK_POCKET
10
27.5
20
22
11
27.5
21
27.5
0
LINE
8
BLACK_POCKET
10
27.5
20
27.5
11
22
21
27.5
0
LINE
8
BLACK_POCKET
10
22
20
27.5
11
22
21
22
0
LINE
8
BLACK_POCKET
10
27.5
20
22
11
33
21
22
0
LINE
8
BLACK_POCKET
10
33
20
22
11
33
21
27.5
0
LINE
8
BLACK_POCKET
10
33
20
27.5
11
27.5
21
27.5
0
LINE
8
BLACK_POCKET
10
27.5
20
27.5
11
27.5
21
22
0
LINE
8
BLACK_POCKET
10
33
20
22
11
38.5
21
22
0
LINE
8
BLACK_POCKET
10
38.5
20
22
11
38.5
21
27.5
0
LINE
8
BLACK_POCKET
10
38.5
20
27.5
11
33
21
27.5
0
LINE
8
BLACK_POCKET
10
33
20
27.5
11
33
21
22
0
LINE
8
BLACK_POCKET
10
38.5
20
22
11
44
21
22
0
LINE
8
BLACK_POCKET
10
44
20
22
11
44
21
27.5
0
LINE
8
BLACK_POCKET
10
44
20
27.5
11
38.5
21
27.5
0
LINE
8
BLACK_POCKET
10
38.5
20
27.5
11
38.5
21
22
0
LINE
8
BLACK_POCKET
10
44
20
22
11
49.5
21
22
0
LINE
8
BLACK_POCKET
10
49.5
20
22
11
49.5
21
27.5
0
LINE
8
BLACK_POCKET
10
49.5
20
27.5
11
44
21
27.5
0
LINE
8
BLACK_POCKET
10
44
20
27.5
11
44
21
22
0
LINE
8
BLACK_POCKET
10
49.5
20
22
11
55
21
22
0
LINE
8
BLACK_POCKET
10
55
20
22
11
55
21
27.5
0
LINE
8
BLACK_POCKET
10
55
20
27.5
11
49.5
21
27.5
0
LINE
8
BLACK_POCKET
10
49.5
20
27.5
11
49.5
21
22
0
LINE
8
BLACK_POCKET
10
55
20
22
11
60.5
21
22
0
LINE
8
BLACK_POCKET
10
60.5
20
22
11
60.5
21
27.5
0
LINE
8
BLACK_POCKET
10
60.5
20
27.5
11
55
21
27.5
0
LINE
8
BLACK_POCKET
10
55
20
27.5
11
55
21
22
0
LINE
8
BLACK_POCKET
10
60.5
20
22
11
66
21
22
0
LINE
8
BLACK_POCKET
10
66
20
22
11
66
21
27.5
0
LINE
8
BLACK_POCKET
10
66
20
27.5
11
60.5
21
27.5
0
LINE
8
BLACK_POCKET
10
60.5
20
27.5
11
60.5
21
22
0
LINE
8
BLACK_POCKET
10
128
20
60.5
11
133.5
21
60.5
0
LINE
8
BLACK_POCKET
10
133.5
20
60.5
11
133.5
21
66
0
LINE
8
BLACK_POCKET
10
133.5
20
66
11
128
21
66
0
LINE
8
BLACK_POCKET
10
128
20
66
11
128
21
60.5
0
LINE
8
BLACK_POCKET
10
133.5
20
60.5
11
139
21
60.5
0
LINE
8
BLACK_POCKET
10
139
20
60.5
11
139
21
66
0
LINE
8
BLACK_POCKET
10
139
20
66
11
133.5
21
66
0
LINE
8
BLACK_POCKET
10
133.5
20
66
11
133.5
21
60.5
0
LINE
8
BLACK_POCKET
10
139
20
60.5
11
144.5
21
60.5
0
LINE
8
BLACK_POCKET
10
144.5
20
60.5
11
144.5
21
66
0
LINE
8
BLACK_POCKET
10
144.5
20
66
11
139
21
66
0
LINE
8
BLACK_POCKET
10
139
20
66
11
139
21
60.5
0
LINE
8
BLACK_POCKET
10
144.5
20
60.5
11
150
21
60.5
0
LINE
8
BLACK_POCKET
10
150
20
60.5
11
150
21
66
0
LINE
8
BLACK_POCKET
10
150
20
66
11
144.5
21
66
0
LINE
8
BLACK_POCKET
10
144.5
20
66
11
144.5
21
60.5
0
LINE
8
BLACK_POCKET
10
150
20
60.5
11
155.5
21
60.5
0
LINE
8
BLACK_POCKET
10
155.5
20
60.5
11
155.5
21
66
0
LINE
8
BLACK_POCKET
10
155.5
20
66
11
150
21
66
0
LINE
8
BLACK_POCKET
10
150
20
66
11
150
21
60.5
0
LINE
8
BLACK_POCKET
10
155.5
20
60.5
11
161
21
60.5
0
LINE
8
BLACK_POCKET
10
161
20
60.5
11
161
21
66
0
LINE
8
BLACK_POCKET
10
161
20
66
11
155.5
21
66
0
LINE
8
BLACK_POCKET
10
155.5
20
66
11
155.5
21
60.5
0
LINE
8
BLACK_POCKET
10
161
20
60.5
11
166.5
21
60.5
0
LINE
8
BLACK_POCKET
10
166.5
20
60.5
11
166.5
21
66
0
LINE
8
BLACK_POCKET
10
166.5
20
66
11
161
21
66
0
LINE
8
BLACK_POCKET
10
161
20
66
11
161
21
60.5
0
LINE
8
BLACK_POCKET
10
166.5
20
60.5
11
172
21
60.5
0
LINE
8
BLACK_POCKET
10
172
20
60.5
11
172
21
66
0
LINE
8
BLACK_POCKET
10
172
20
66
11
166.5
21
66
0
LINE
8
BLACK_POCKET
10
166.5
20
66
11
166.5
21
60.5
0
LINE
8
BLACK_POCKET
10
128
20
55
11
133.5
21
55
0
LINE
8
BLACK_POCKET
10
133.5
20
55
11
133.5
21
60.5
0
LINE
8
BLACK_POCKET
10
133.5
20
60.5
11
128
21
60.5
0
LINE
8
BLACK_POCKET
10
128
20
60.5
11
128
21
55
0
LINE
8
BLACK_POCKET
10
133.5
20
55
11
139
21
55
0
LINE
8
BLACK_POCKET
10
139
20
55
11
139
21
60.5
0
LINE
8
BLACK_POCKET
10
139
20
60.5
11
133.5
21
60.5
0
LINE
8
BLACK_POCKET
10
133.5
20
60.5
11
133.5
21
55
0
LINE
8
BLACK_POCKET
10
144.5
20
55
11
150
21
55
0
LINE
8
BLACK_POCKET
10
150
20
55
11
150
21
60.5
0
LINE
8
BLACK_POCKET
10
150
20
60.5
11
144.5
21
60.5
0
LINE
8
BLACK_POCKET
10
144.5
20
60.5
11
144.5
21
55
0
LINE
8
BLACK_POCKET
10
155.5
20
55
11
161
21
55
0
LINE
8
BLACK_POCKET
10
161
20
55
11
161
21
60.5
0
LINE
8
BLACK_POCKET
10
161
20
60.5
11
155.5
21
60.5
0
LINE
8
BLACK_POCKET
10
155.5
20
60.5
11
155.5
21
55
0
LINE
8
BLACK_POCKET
10
166.5
20
55
11
172
21
55
0
LINE
8
BLACK_POCKET
10
172
20
55
11
172
21
60.5
0
LINE
8
BLACK_POCKET
10
172
20
60.5
11
166.5
21
60.5
0
LINE
8
BLACK_POCKET
10
166.5
20
60.5
11
166.5
21
55
0
LINE
8
BLACK_POCKET
10
128
20
49.5
11
133.5
21
49.5
0
LINE
8
BLACK_POCKET
10
133.5
20
49.5
11
133.5
21
55
0
LINE
8
BLACK_POCKET
10
133.5
20
55
11
128
21
55
0
LINE
8
BLACK_POCKET
10
128
20
55
11
128
21
49.5
0
LINE
8
BLACK_POCKET
10
139
20
49.5
11
144.5
21
49.5
0
LINE
8
BLACK_POCKET
10
144.5
20
49.5
11
144.5
21
55
0
LINE
8
BLACK_POCKET
10
144.5
20
55
11
139
21
55
0
LINE
8
BLACK_POCKET
10
139
20
55
11
139
21
49.5
0
LINE
8
BLACK_POCKET
10
166.5
20
49.5
11
172
21
49.5
0
LINE
8
BLACK_POCKET
10
172
20
49.5
11
172
21
55
0
LINE
8
BLACK_POCKET
10
172
20
55
11
166.5
21
55
0
LINE
8
BLACK_POCKET
10
166.5
20
55
11
166.5
21
49.5
0
LINE
8
BLACK_POCKET
10
128
20
44
11
133.5
21
44
0
LINE
8
BLACK_POCKET
10
133.5
20
44
11
133.5
21
49.5
0
LINE
8
BLACK_POCKET
10
133.5
20
49.5
11
128
21
49.5
0
LINE
8
BLACK_POCKET
10
128
20
49.5
11
128
21
44
0
LINE
8
BLACK_POCKET
10
139
20
44
11
144.5
21
44
0
LINE
8
BLACK_POCKET
10
144.5
20
44
11
144.5
21
49.5
0
LINE
8
BLACK_POCKET
10
144.5
20
49.5
11
139
21
49.5
0
LINE
8
BLACK_POCKET
10
139
20
49.5
11
139
21
44
0
LINE
8
BLACK_POCKET
10
155.5
20
44
11
161
21
44
0
LINE
8
BLACK_POCKET
10
161
20
44
11
161
21
49.5
0
LINE
8
BLACK_POCKET
10
161
20
49.5
11
155.5
21
49.5
0
LINE
8
BLACK_POCKET
10
155.5
20
49.5
11
155.5
21
44
0
LINE
8
BLACK_POCKET
10
166.5
20
44
11
172
21
44
0
LINE
8
BLACK_POCKET
10
172
20
44
11
172
21
49.5
0
LINE
8
BLACK_POCKET
10
172
20
49.5
11
166.5
21
49.5
0
LINE
8
BLACK_POCKET
10
166.5
20
49.5
11
166.5
21
44
0
LINE
8
BLACK_POCKET
10
128
20
38.5
11
133.5
21
38.5
0
LINE
8
BLACK_POCKET
10
133.5
20
38.5
11
133.5
21
44
0
LINE
8
BLACK_POCKET
10
133.5
20
44
11
128
21
44
0
LINE
8
BLACK_POCKET
10
128
20
44
11
128
21
38.5
0
LINE
8
BLACK_POCKET
10
133.5
20
38.5
11
139
21
38.5
0
LINE
8
BLACK_POCKET
10
139
20
38.5
11
139
21
44
0
LINE
8
BLACK_POCKET
10
139
20
44
11
133.5
21
44
0
LINE
8
BLACK_POCKET
10
133.5
20
44
11
133.5
21
38.5
0
LINE
8
BLACK_POCKET
10
139
20
38.5
11
144.5
21
38.5
0
LINE
8
BLACK_POCKET
10
144.5
20
38.5
11
144.5
21
44
0
LINE
8
BLACK_POCKET
10
144.5
20
44
11
139
21
44
0
LINE
8
BLACK_POCKET
10
139
20
44
11
139
21
38.5
0
LINE
8
BLACK_POCKET
10
150
20
38.5
11
155.5
21
38.5
0
LINE
8
BLACK_POCKET
10
155.5
20
38.5
11
155.5
21
44
0
LINE
8
BLACK_POCKET
10
155.5
20
44
11
150
21
44
0
LINE
8
BLACK_POCKET
10
150
20
44
11
150
21
38.5
0
LINE
8
BLACK_POCKET
10
166.5
20
38.5
11
172
21
38.5
0
LINE
8
BLACK_POCKET
10
172
20
38.5
11
172
21
44
0
LINE
8
BLACK_POCKET
10
172
20
44
11
166.5
21
44
0
LINE
8
BLACK_POCKET
10
166.5
20
44
11
166.5
21
38.5
0
LINE
8
BLACK_POCKET
10
128
20
33
11
133.5
21
33
0
LINE
8
BLACK_POCKET
10
133.5
20
33
11
133.5
21
38.5
0
LINE
8
BLACK_POCKET
10
133.5
20
38.5
11
128
21
38.5
0
LINE
8
BLACK_POCKET
10
128
20
38.5
11
128
21
33
0
LINE
8
BLACK_POCKET
10
133.5
20
33
11
139
21
33
0
LINE
8
BLACK_POCKET
10
139
20
33
11
139
21
38.5
0
LINE
8
BLACK_POCKET
10
139
20
38.5
11
133.5
21
38.5
0
LINE
8
BLACK_POCKET
10
133.5
20
38.5
11
133.5
21
33
0
LINE
8
BLACK_POCKET
10
139
20
33
11
144.5
21
33
0
LINE
8
BLACK_POCKET
10
144.5
20
33
11
144.5
21
38.5
0
LINE
8
BLACK_POCKET
10
144.5
20
38.5
11
139
21
38.5
0
LINE
8
BLACK_POCKET
10
139
20
38.5
11
139
21
33
0
LINE
8
BLACK_POCKET
10
150
20
33
11
155.5
21
33
0
LINE
8
BLACK_POCKET
10
155.5
20
33
11
155.5
21
38.5
0
LINE
8
BLACK_POCKET
10
155.5
20
38.5
11
150
21
38.5
0
LINE
8
BLACK_POCKET
10
150
20
38.5
11
150
21
33
0
LINE
8
BLACK_POCKET
10
161
20
33
11
166.5
21
33
0
LINE
8
BLACK_POCKET
10
166.5
20
33
11
166.5
21
38.5
0
LINE
8
BLACK_POCKET
10
166.5
20
38.5
11
161
21
38.5
0
LINE
8
BLACK_POCKET
10
161
20
38.5
11
161
21
33
0
LINE
8
BLACK_POCKET
10
166.5
20
33
11
172
21
33
0
LINE
8
BLACK_POCKET
10
172
20
33
11
172
21
38.5
0
LINE
8
BLACK_POCKET
10
172
20
38.5
11
166.5
21
38.5
0
LINE
8
BLACK_POCKET
10
166.5
20
38.5
11
166.5
21
33
0
LINE
8
BLACK_POCKET
10
128
20
27.5
11
133.5
21
27.5
0
LINE
8
BLACK_POCKET
10
133.5
20
27.5
11
133.5
21
33
0
LINE
8
BLACK_POCKET
10
133.5
20
33
11
128
21
33
0
LINE
8
BLACK_POCKET
10
128
20
33
11
128
21
27.5
0
LINE
8
BLACK_POCKET
10
133.5
20
27.5
11
139
21
27.5
0
LINE
8
BLACK_POCKET
10
139
20
27.5
11
139
21
33
0
LINE
8
BLACK_POCKET
10
139
20
33
11
133.5
21
33
0
LINE
8
BLACK_POCKET
10
133.5
20
33
11
133.5
21
27.5
0
LINE
8
BLACK_POCKET
10
139
20
27.5
11
144.5
21
27.5
0
LINE
8
BLACK_POCKET
10
144.5
20
27.5
11
144.5
21
33
0
LINE
8
BLACK_POCKET
10
144.5
20
33
11
139
21
33
0
LINE
8
BLACK_POCKET
10
139
20
33
11
139
21
27.5
0
LINE
8
BLACK_POCKET
10
144.5
20
27.5
11
150
21
27.5
0
LINE
8
BLACK_POCKET
10
150
20
27.5
11
150
21
33
0
LINE
8
BLACK_POCKET
10
150
20
33
11
144.5
21
33
0
LINE
8
BLACK_POCKET
10
144.5
20
33
11
144.5
21
27.5
0
LINE
8
BLACK_POCKET
10
150
20
27.5
11
155.5
21
27.5
0
LINE
8
BLACK_POCKET
10
155.5
20
27.5
11
155.5
21
33
0
LINE
8
BLACK_POCKET
10
155.5
20
33
11
150
21
33
0
LINE
8
BLACK_POCKET
10
150
20
33
11
150
21
27.5
0
LINE
8
BLACK_POCKET
10
155.5
20
27.5
11
161
21
27.5
0
LINE
8
BLACK_POCKET
10
161
20
27.5
11
161
21
33
0
LINE
8
BLACK_POCKET
10
161
20
33
11
155.5
21
33
0
LINE
8
BLACK_POCKET
10
155.5
20
33
11
155.5
21
27.5
0
LINE
8
BLACK_POCKET
10
161
20
27.5
11
166.5
21
27.5
0
LINE
8
BLACK_POCKET
10
166.5
20
27.5
11
166.5
21
33
0
LINE
8
BLACK_POCKET
10
166.5
20
33
11
161
21
33
0
LINE
8
BLACK_POCKET
10
161
20
33
11
161
21
27.5
0
LINE
8
BLACK_POCKET
10
166.5
20
27.5
11
172
21
27.5
0
LINE
8
BLACK_POCKET
10
172
20
27.5
11
172
21
33
0
LINE
8
BLACK_POCKET
10
172
20
33
11
166.5
21
33
0
LINE
8
BLACK_POCKET
10
166.5
20
33
11
166.5
21
27.5
0
LINE
8
BLACK_POCKET
10
128
20
22
11
133.5
21
22
0
LINE
8
BLACK_POCKET
10
133.5
20
22
11
133.5
21
27.5
0
LINE
8
BLACK_POCKET
10
133.5
20
27.5
11
128
21
27.5
0
LINE
8
BLACK_POCKET
10
128
20
27.5
11
128
21
22
0
LINE
8
BLACK_POCKET
10
133.5
20
22
11
139
21
22
0
LINE
8
BLACK_POCKET
10
139
20
22
11
139
21
27.5
0
LINE
8
BLACK_POCKET
10
139
20
27.5
11
133.5
21
27.5
0
LINE
8
BLACK_POCKET
10
133.5
20
27.5
11
133.5
21
22
0
LINE
8
BLACK_POCKET
10
139
20
22
11
144.5
21
22
0
LINE
8
BLACK_POCKET
10
144.5
20
22
11
144.5
21
27.5
0
LINE
8
BLACK_POCKET
10
144.5
20
27.5
11
139
21
27.5
0
LINE
8
BLACK_POCKET
10
139
20
27.5
11
139
21
22
0
LINE
8
BLACK_POCKET
10
144.5
20
22
11
150
21
22
0
LINE
8
BLACK_POCKET
10
150
20
22
11
150
21
27.5
0
LINE
8
BLACK_POCKET
10
150
20
27.5
11
144.5
21
27.5
0
LINE
8
BLACK_POCKET
10
144.5
20
27.5
11
144.5
21
22
0
LINE
8
BLACK_POCKET
10
150
20
22
11
155.5
21
22
0
LINE
8
BLACK_POCKET
10
155.5
20
22
11
155.5
21
27.5
0
LINE
8
BLACK_POCKET
10
155.5
20
27.5
11
150
21
27.5
0
LINE
8
BLACK_POCKET
10
150
20
27.5
11
150
21
22
0
LINE
8
BLACK_POCKET
10
155.5
20
22
11
161
21
22
0
LINE
8
BLACK_POCKET
10
161
20
22
11
161
21
27.5
0
LINE
8
BLACK_POCKET
10
161
20
27.5
11
155.5
21
27.5
0
LINE
8
BLACK_POCKET
10
155.5
20
27.5
11
155.5
21
22
0
LINE
8
BLACK_POCKET
10
161
20
22
11
166.5
21
22
0
LINE
8
BLACK_POCKET
10
166.5
20
22
11
166.5
21
27.5
0
LINE
8
BLACK_POCKET
10
166.5
20
27.5
11
161
21
27.5
0
LINE
8
BLACK_POCKET
10
161
20
27.5
11
161
21
22
0
LINE
8
BLACK_POCKET
10
166.5
20
22
11
172
21
22
0
LINE
8
BLACK_POCKET
10
172
20
22
11
172
21
27.5
0
LINE
8
BLACK_POCKET
10
172
20
27.5
11
166.5
21
27.5
0
LINE
8
BLACK_POCKET
10
166.5
20
27.5
11
166.5
21
22
0
LINE
8
BLACK_POCKET
10
234
20
60.5
11
239.5
21
60.5
0
LINE
8
BLACK_POCKET
10
239.5
20
60.5
11
239.5
21
66
0
LINE
8
BLACK_POCKET
10
239.5
20
66
11
234
21
66
0
LINE
8
BLACK_POCKET
10
234
20
66
11
234
21
60.5
0
LINE
8
BLACK_POCKET
10
239.5
20
60.5
11
245
21
60.5
0
LINE
8
BLACK_POCKET
10
245
20
60.5
11
245
21
66
0
LINE
8
BLACK_POCKET
10
245
20
66
11
239.5
21
66
0
LINE
8
BLACK_POCKET
10
239.5
20
66
11
239.5
21
60.5
0
LINE
8
BLACK_POCKET
10
245
20
60.5
11
250.5
21
60.5
0
LINE
8
BLACK_POCKET
10
250.5
20
60.5
11
250.5
21
66
0
LINE
8
BLACK_POCKET
10
250.5
20
66
11
245
21
66
0
LINE
8
BLACK_POCKET
10
245
20
66
11
245
21
60.5
0
LINE
8
BLACK_POCKET
10
250.5
20
60.5
11
256
21
60.5
0
LINE
8
BLACK_POCKET
10
256
20
60.5
11
256
21
66
0
LINE
8
BLACK_POCKET
10
256
20
66
11
250.5
21
66
0
LINE
8
BLACK_POCKET
10
250.5
20
66
11
250.5
21
60.5
0
LINE
8
BLACK_POCKET
10
256
20
60.5
11
261.5
21
60.5
0
LINE
8
BLACK_POCKET
10
261.5
20
60.5
11
261.5
21
66
0
LINE
8
BLACK_POCKET
10
261.5
20
66
11
256
21
66
0
LINE
8
BLACK_POCKET
10
256
20
66
11
256
21
60.5
0
LINE
8
BLACK_POCKET
10
261.5
20
60.5
11
267
21
60.5
0
LINE
8
BLACK_POCKET
10
267
20
60.5
11
267
21
66
0
LINE
8
BLACK_POCKET
10
267
20
66
11
261.5
21
66
0
LINE
8
BLACK_POCKET
10
261.5
20
66
11
261.5
21
60.5
0
LINE
8
BLACK_POCKET
10
267
20
60.5
11
272.5
21
60.5
0
LINE
8
BLACK_POCKET
10
272.5
20
60.5
11
272.5
21
66
0
LINE
8
BLACK_POCKET
10
272.5
20
66
11
267
21
66
0
LINE
8
BLACK_POCKET
10
267
20
66
11
267
21
60.5
0
LINE
8
BLACK_POCKET
10
272.5
20
60.5
11
278
21
60.5
0
LINE
8
BLACK_POCKET
10
278
20
60.5
11
278
21
66
0
LINE
8
BLACK_POCKET
10
278
20
66
11
272.5
21
66
0
LINE
8
BLACK_POCKET
10
272.5
20
66
11
272.5
21
60.5
0
LINE
8
BLACK_POCKET
10
234
20
55
11
239.5
21
55
0
LINE
8
BLACK_POCKET
10
239.5
20
55
11
239.5
21
60.5
0
LINE
8
BLACK_POCKET
10
239.5
20
60.5
11
234
21
60.5
0
LINE
8
BLACK_POCKET
10
234
20
60.5
11
234
21
55
0
LINE
8
BLACK_POCKET
10
256
20
55
11
261.5
21
55
0
LINE
8
BLACK_POCKET
10
261.5
20
55
11
261.5
21
60.5
0
LINE
8
BLACK_POCKET
10
261.5
20
60.5
11
256
21
60.5
0
LINE
8
BLACK_POCKET
10
256
20
60.5
11
256
21
55
0
LINE
8
BLACK_POCKET
10
272.5
20
55
11
278
21
55
0
LINE
8
BLACK_POCKET
10
278
20
55
11
278
21
60.5
0
LINE
8
BLACK_POCKET
10
278
20
60.5
11
272.5
21
60.5
0
LINE
8
BLACK_POCKET
10
272.5
20
60.5
11
272.5
21
55
0
LINE
8
BLACK_POCKET
10
234
20
49.5
11
239.5
21
49.5
0
LINE
8
BLACK_POCKET
10
239.5
20
49.5
11
239.5
21
55
0
LINE
8
BLACK_POCKET
10
239.5
20
55
11
234
21
55
0
LINE
8
BLACK_POCKET
10
234
20
55
11
234
21
49.5
0
LINE
8
BLACK_POCKET
10
239.5
20
49.5
11
245
21
49.5
0
LINE
8
BLACK_POCKET
10
245
20
49.5
11
245
21
55
0
LINE
8
BLACK_POCKET
10
245
20
55
11
239.5
21
55
0
LINE
8
BLACK_POCKET
10
239.5
20
55
11
239.5
21
49.5
0
LINE
8
BLACK_POCKET
10
256
20
49.5
11
261.5
21
49.5
0
LINE
8
BLACK_POCKET
10
261.5
20
49.5
11
261.5
21
55
0
LINE
8
BLACK_POCKET
10
261.5
20
55
11
256
21
55
0
LINE
8
BLACK_POCKET
10
256
20
55
11
256
21
49.5
0
LINE
8
BLACK_POCKET
10
267
20
49.5
11
272.5
21
49.5
0
LINE
8
BLACK_POCKET
10
272.5
20
49.5
11
272.5
21
55
0
LINE
8
BLACK_POCKET
10
272.5
20
55
11
267
21
55
0
LINE
8
BLACK_POCKET
10
267
20
55
11
267
21
49.5
0
LINE
8
BLACK_POCKET
10
272.5
20
49.5
11
278
21
49.5
0
LINE
8
BLACK_POCKET
10
278
20
49.5
11
278
21
55
0
LINE
8
BLACK_POCKET
10
278
20
55
11
272.5
21
55
0
LINE
8
BLACK_POCKET
10
272.5
20
55
11
272.5
21
49.5
0
LINE
8
BLACK_POCKET
10
234
20
44
11
239.5
21
44
0
LINE
8
BLACK_POCKET
10
239.5
20
44
11
239.5
21
49.5
0
LINE
8
BLACK_POCKET
10
239.5
20
49.5
11
234
21
49.5
0
LINE
8
BLACK_POCKET
10
234
20
49.5
11
234
21
44
0
LINE
8
BLACK_POCKET
10
239.5
20
44
11
245
21
44
0
LINE
8
BLACK_POCKET
10
245
20
44
11
245
21
49.5
0
LINE
8
BLACK_POCKET
10
245
20
49.5
11
239.5
21
49.5
0
LINE
8
BLACK_POCKET
10
239.5
20
49.5
11
239.5
21
44
0
LINE
8
BLACK_POCKET
10
256
20
44
11
261.5
21
44
0
LINE
8
BLACK_POCKET
10
261.5
20
44
11
261.5
21
49.5
0
LINE
8
BLACK_POCKET
10
261.5
20
49.5
11
256
21
49.5
0
LINE
8
BLACK_POCKET
10
256
20
49.5
11
256
21
44
0
LINE
8
BLACK_POCKET
10
261.5
20
44
11
267
21
44
0
LINE
8
BLACK_POCKET
10
267
20
44
11
267
21
49.5
0
LINE
8
BLACK_POCKET
10
267
20
49.5
11
261.5
21
49.5
0
LINE
8
BLACK_POCKET
10
261.5
20
49.5
11
261.5
21
44
0
LINE
8
BLACK_POCKET
10
272.5
20
44
11
278
21
44
0
LINE
8
BLACK_POCKET
10
278
20
44
11
278
21
49.5
0
LINE
8
BLACK_POCKET
10
278
20
49.5
11
272.5
21
49.5
0
LINE
8
BLACK_POCKET
10
272.5
20
49.5
11
272.5
21
44
0
LINE
8
BLACK_POCKET
10
234
20
38.5
11
239.5
21
38.5
0
LINE
8
BLACK_POCKET
10
239.5
20
38.5
11
239.5
21
44
0
LINE
8
BLACK_POCKET
10
239.5
20
44
11
234
21
44
0
LINE
8
BLACK_POCKET
10
234
20
44
11
234
21
38.5
0
LINE
8
BLACK_POCKET
10
239.5
20
38.5
11
245
21
38.5
0
LINE
8
BLACK_POCKET
10
245
20
38.5
11
245
21
44
0
LINE
8
BLACK_POCKET
10
245
20
44
11
239.5
21
44
0
LINE
8
BLACK_POCKET
10
239.5
20
44
11
239.5
21
38.5
0
LINE
8
BLACK_POCKET
10
245
20
38.5
11
250.5
21
38.5
0
LINE
8
BLACK_POCKET
10
250.5
20
38.5
11
250.5
21
44
0
LINE
8
BLACK_POCKET
10
250.5
20
44
11
245
21
44
0
LINE
8
BLACK_POCKET
10
245
20
44
11
245
21
38.5
0
LINE
8
BLACK_POCKET
10
261.5
20
38.5
11
267
21
38.5
0
LINE
8
BLACK_POCKET
10
267
20
38.5
11
267
21
44
0
LINE
8
BLACK_POCKET
10
267
20
44
11
261.5
21
44
0
LINE
8
BLACK_POCKET
10
261.5
20
44
11
261.5
21
38.5
0
LINE
8
BLACK_POCKET
10
267
20
38.5
11
272.5
21
38.5
0
LINE
8
BLACK_POCKET
10
272.5
20
38.5
11
272.5
21
44
0
LINE
8
BLACK_POCKET
10
272.5
20
44
11
267
21
44
0
LINE
8
BLACK_POCKET
10
267
20
44
11
267
21
38.5
0
LINE
8
BLACK_POCKET
10
272.5
20
38.5
11
278
21
38.5
0
LINE
8
BLACK_POCKET
10
278
20
38.5
11
278
21
44
0
LINE
8
BLACK_POCKET
10
278
20
44
11
272.5
21
44
0
LINE
8
BLACK_POCKET
10
272.5
20
44
11
272.5
21
38.5
0
LINE
8
BLACK_POCKET
10
234
20
33
11
239.5
21
33
0
LINE
8
BLACK_POCKET
10
239.5
20
33
11
239.5
21
38.5
0
LINE
8
BLACK_POCKET
10
239.5
20
38.5
11
234
21
38.5
0
LINE
8
BLACK_POCKET
10
234
20
38.5
11
234
21
33
0
LINE
8
BLACK_POCKET
10
239.5
20
33
11
245
21
33
0
LINE
8
BLACK_POCKET
10
245
20
33
11
245
21
38.5
0
LINE
8
BLACK_POCKET
10
245
20
38.5
11
239.5
21
38.5
0
LINE
8
BLACK_POCKET
10
239.5
20
38.5
11
239.5
21
33
0
LINE
8
BLACK_POCKET
10
256
20
33
11
261.5
21
33
0
LINE
8
BLACK_POCKET
10
261.5
20
33
11
261.5
21
38.5
0
LINE
8
BLACK_POCKET
10
261.5
20
38.5
11
256
21
38.5
0
LINE
8
BLACK_POCKET
10
256
20
38.5
11
256
21
33
0
LINE
8
BLACK_POCKET
10
272.5
20
33
11
278
21
33
0
LINE
8
BLACK_POCKET
10
278
20
33
11
278
21
38.5
0
LINE
8
BLACK_POCKET
10
278
20
38.5
11
272.5
21
38.5
0
LINE
8
BLACK_POCKET
10
272.5
20
38.5
11
272.5
21
33
0
LINE
8
BLACK_POCKET
10
234
20
27.5
11
239.5
21
27.5
0
LINE
8
BLACK_POCKET
10
239.5
20
27.5
11
239.5
21
33
0
LINE
8
BLACK_POCKET
10
239.5
20
33
11
234
21
33
0
LINE
8
BLACK_POCKET
10
234
20
33
11
234
21
27.5
0
LINE
8
BLACK_POCKET
10
239.5
20
27.5
11
245
21
27.5
0
LINE
8
BLACK_POCKET
10
245
20
27.5
11
245
21
33
0
LINE
8
BLACK_POCKET
10
245
20
33
11
239.5
21
33
0
LINE
8
BLACK_POCKET
10
239.5
20
33
11
239.5
21
27.5
0
LINE
8
BLACK_POCKET
10
250.5
20
27.5
11
256
21
27.5
0
LINE
8
BLACK_POCKET
10
256
20
27.5
11
256
21
33
0
LINE
8
BLACK_POCKET
10
256
20
33
11
250.5
21
33
0
LINE
8
BLACK_POCKET
10
250.5
20
33
11
250.5
21
27.5
0
LINE
8
BLACK_POCKET
10
256
20
27.5
11
261.5
21
27.5
0
LINE
8
BLACK_POCKET
10
261.5
20
27.5
11
261.5
21
33
0
LINE
8
BLACK_POCKET
10
261.5
20
33
11
256
21
33
0
LINE
8
BLACK_POCKET
10
256
20
33
11
256
21
27.5
0
LINE
8
BLACK_POCKET
10
261.5
20
27.5
11
267
21
27.5
0
LINE
8
BLACK_POCKET
10
267
20
27.5
11
267
21
33
0
LINE
8
BLACK_POCKET
10
267
20
33
11
261.5
21
33
0
LINE
8
BLACK_POCKET
10
261.5
20
33
11
261.5
21
27.5
0
LINE
8
BLACK_POCKET
10
267
20
27.5
11
272.5
21
27.5
0
LINE
8
BLACK_POCKET
10
272.5
20
27.5
11
272.5
21
33
0
LINE
8
BLACK_POCKET
10
272.5
20
33
11
267
21
33
0
LINE
8
BLACK_POCKET
10
267
20
33
11
267
21
27.5
0
LINE
8
BLACK_POCKET
10
272.5
20
27.5
11
278
21
27.5
0
LINE
8
BLACK_POCKET
10
278
20
27.5
11
278
21
33
0
LINE
8
BLACK_POCKET
10
278
20
33
11
272.5
21
33
0
LINE
8
BLACK_POCKET
10
272.5
20
33
11
272.5
21
27.5
0
LINE
8
BLACK_POCKET
10
234
20
22
11
239.5
21
22
0
LINE
8
BLACK_POCKET
10
239.5
20
22
11
239.5
21
27.5
0
LINE
8
BLACK_POCKET
10
239.5
20
27.5
11
234
21
27.5
0
LINE
8
BLACK_POCKET
10
234
20
27.5
11
234
21
22
0
LINE
8
BLACK_POCKET
10
239.5
20
22
11
245
21
22
0
LINE
8
BLACK_POCKET
10
245
20
22
11
245
21
27.5
0
LINE
8
BLACK_POCKET
10
245
20
27.5
11
239.5
21
27.5
0
LINE
8
BLACK_POCKET
10
239.5
20
27.5
11
239.5
21
22
0
LINE
8
BLACK_POCKET
10
245
20
22
11
250.5
21
22
0
LINE
8
BLACK_POCKET
10
250.5
20
22
11
250.5
21
27.5
0
LINE
8
BLACK_POCKET
10
250.5
20
27.5
11
245
21
27.5
0
LINE
8
BLACK_POCKET
10
245
20
27.5
11
245
21
22
0
LINE
8
BLACK_POCKET
10
250.5
20
22
11
256
21
22
0
LINE
8
BLACK_POCKET
10
256
20
22
11
256
21
27.5
0
LINE
8
BLACK_POCKET
10
256
20
27.5
11
250.5
21
27.5
0
LINE
8
BLACK_POCKET
10
250.5
20
27.5
11
250.5
21
22
0
LINE
8
BLACK_POCKET
10
256
20
22
11
261.5
21
22
0
LINE
8
BLACK_POCKET
10
261.5
20
22
11
261.5
21
27.5
0
LINE
8
BLACK_POCKET
10
261.5
20
27.5
11
256
21
27.5
0
LINE
8
BLACK_POCKET
10
256
20
27.5
11
256
21
22
0
LINE
8
BLACK_POCKET
10
261.5
20
22
11
267
21
22
0
LINE
8
BLACK_POCKET
10
267
20
22
11
267
21
27.5
0
LINE
8
BLACK_POCKET
10
267
20
27.5
11
261.5
21
27.5
0
LINE
8
BLACK_POCKET
10
261.5
20
27.5
11
261.5
21
22
0
LINE
8
BLACK_POCKET
10
267
20
22
11
272.5
21
22
0
LINE
8
BLACK_POCKET
10
272.5
20
22
11
272.5
21
27.5
0
LINE
8
BLACK_POCKET
10
272.5
20
27.5
11
267
21
27.5
0
LINE
8
BLACK_POCKET
10
267
20
27.5
11
267
21
22
0
LINE
8
BLACK_POCKET
10
272.5
20
22
11
278
21
22
0
LINE
8
BLACK_POCKET
10
278
20
22
11
278
21
27.5
0
LINE
8
BLACK_POCKET
10
278
20
27.5
11
272.5
21
27.5
0
LINE
8
BLACK_POCKET
10
272.5
20
27.5
11
272.5
21
22
0
ENDSEC
0
EOF
