0
SECTION
2
HEADER
9
$ACADVER
1
AC1009
0
ENDSEC
0
SECTION
2
TABLES
0
TABLE
2
LAYER
70
9
0
LAYER
2
CUT
70
0
62
7
6
CONTINUOUS
0
LAYER
2
MOUNT_HOLE
70
0
62
6
6
CONTINUOUS
0
LAYER
2
BLACK_POCKET
70
0
62
7
6
CONTINUOUS
0
LAYER
2
BOARD_TEXT
70
0
62
7
6
CONTINUOUS
0
LAYER
2
ORIENTATION
70
0
62
7
6
CONTINUOUS
0
LAYER
2
BLACK_FILL_PREVIEW
70
0
62
8
6
CONTINUOUS
0
LAYER
2
TAG_BOUNDARY
70
0
62
8
6
CONTINUOUS
0
LAYER
2
QUIET_ZONE
70
0
62
5
6
CONTINUOUS
0
LAYER
2
LABEL
70
0
62
3
6
CONTINUOUS
0
ENDTAB
0
ENDSEC
0
SECTION
2
ENTITIES
0
LINE
8
CUT
10
0
20
0
11
300
21
0
0
LINE
8
CUT
10
300
20
0
11
300
21
300
0
LINE
8
CUT
10
300
20
300
11
0
21
300
0
LINE
8
CUT
10
0
20
300
11
0
21
0
0
CIRCLE
8
MOUNT_HOLE
10
96
20
44
40
2.6
0
CIRCLE
8
MOUNT_HOLE
10
204
20
44
40
2.6
0
CIRCLE
8
MOUNT_HOLE
10
96
20
256
40
2.6
0
CIRCLE
8
MOUNT_HOLE
10
204
20
256
40
2.6
0
TEXT
8
LABEL
10
150
20
150
40
7
1
4 X DIA 5.2; X=96/204, Y=44/256 MM
72
1
11
150
21
150
0
ENDSEC
0
EOF
