0
SECTION
2
HEADER
9
$ACADVER
1
AC1009
0
ENDSEC
0
SECTION
2
TABLES
0
TABLE
2
LTYPE
70
1
0
LTYPE
2
CONTINUOUS
70
0
3
Solid line
72
65
73
0
40
0
0
ENDTAB
0
TABLE
2
LAYER
70
12
0
LAYER
2
CUT
70
0
62
1
6
CONTINUOUS
0
LAYER
2
MOUNT_HOLE
70
0
62
5
6
CONTINUOUS
0
LAYER
2
BLACK_POCKET
70
0
62
7
6
CONTINUOUS
0
LAYER
2
BLACK_FILL_PREVIEW
70
0
62
250
6
CONTINUOUS
0
LAYER
2
BOARD_TEXT
70
0
62
2
6
CONTINUOUS
0
LAYER
2
ORIENTATION
70
0
62
1
6
CONTINUOUS
0
LAYER
2
TAG_BOUNDARY
70
0
62
8
6
CONTINUOUS
0
LAYER
2
QUIET_ZONE
70
0
62
4
6
CONTINUOUS
0
LAYER
2
LABEL
70
0
62
3
6
CONTINUOUS
0
LAYER
2
FIXTURE
70
0
62
5
6
CONTINUOUS
0
LAYER
2
PANEL_SLOT
70
0
62
2
6
CONTINUOUS
0
LAYER
2
CENTERLINE
70
0
62
6
6
CONTINUOUS
0
ENDTAB
0
ENDSEC
0
SECTION
2
ENTITIES
0
LINE
8
FIXTURE
10
150
20
0
11
75
21
129.903811
0
LINE
8
FIXTURE
10
75
20
129.903811
11
-75
21
129.903811
0
LINE
8
FIXTURE
10
-75
20
129.903811
11
-150
21
0
0
LINE
8
FIXTURE
10
-150
20
0
11
-75
21
-129.903811
0
LINE
8
FIXTURE
10
-75
20
-129.903811
11
75
21
-129.903811
0
LINE
8
FIXTURE
10
75
20
-129.903811
11
150
21
0
0
LINE
8
CENTERLINE
10
45
20
25.980762
11
0
21
51.961524
0
LINE
8
CENTERLINE
10
0
20
51.961524
11
-45
21
25.980762
0
LINE
8
CENTERLINE
10
-45
20
25.980762
11
-45
21
-25.980762
0
LINE
8
CENTERLINE
10
-45
20
-25.980762
11
-0
21
-51.961524
0
LINE
8
CENTERLINE
10
-0
20
-51.961524
11
45
21
-25.980762
0
LINE
8
CENTERLINE
10
45
20
-25.980762
11
45
21
25.980762
0
LINE
8
PANEL_SLOT
10
148.614359
20
-0.8
11
73.614359
21
129.103811
0
LINE
8
PANEL_SLOT
10
73.614359
20
129.103811
11
76.385641
21
130.703811
0
LINE
8
PANEL_SLOT
10
76.385641
20
130.703811
11
151.385641
21
0.8
0
LINE
8
PANEL_SLOT
10
151.385641
20
0.8
11
148.614359
21
-0.8
0
LINE
8
CENTERLINE
10
0
20
0
11
112.5
21
64.951905
0
TEXT
8
LABEL
10
118.125
20
68.199501
40
5
1
FACE 1
50
0
0
LINE
8
PANEL_SLOT
10
75
20
128.303811
11
-75
21
128.303811
0
LINE
8
PANEL_SLOT
10
-75
20
128.303811
11
-75
21
131.503811
0
LINE
8
PANEL_SLOT
10
-75
20
131.503811
11
75
21
131.503811
0
LINE
8
PANEL_SLOT
10
75
20
131.503811
11
75
21
128.303811
0
LINE
8
CENTERLINE
10
0
20
0
11
0
21
129.903811
0
TEXT
8
LABEL
10
0
20
136.399001
40
5
1
FACE 2
50
0
0
LINE
8
PANEL_SLOT
10
-73.614359
20
129.103811
11
-148.614359
21
-0.8
0
LINE
8
PANEL_SLOT
10
-148.614359
20
-0.8
11
-151.385641
21
0.8
0
LINE
8
PANEL_SLOT
10
-151.385641
20
0.8
11
-76.385641
21
130.703811
0
LINE
8
PANEL_SLOT
10
-76.385641
20
130.703811
11
-73.614359
21
129.103811
0
LINE
8
CENTERLINE
10
0
20
0
11
-112.5
21
64.951905
0
TEXT
8
LABEL
10
-118.125
20
68.199501
40
5
1
FACE 3
50
0
0
LINE
8
PANEL_SLOT
10
-148.614359
20
0.8
11
-73.614359
21
-129.103811
0
LINE
8
PANEL_SLOT
10
-73.614359
20
-129.103811
11
-76.385641
21
-130.703811
0
LINE
8
PANEL_SLOT
10
-76.385641
20
-130.703811
11
-151.385641
21
-0.8
0
LINE
8
PANEL_SLOT
10
-151.385641
20
-0.8
11
-148.614359
21
0.8
0
LINE
8
CENTERLINE
10
0
20
0
11
-112.5
21
-64.951905
0
TEXT
8
LABEL
10
-118.125
20
-68.199501
40
5
1
FACE 4
50
0
0
LINE
8
PANEL_SLOT
10
-75
20
-128.303811
11
75
21
-128.303811
0
LINE
8
PANEL_SLOT
10
75
20
-128.303811
11
75
21
-131.503811
0
LINE
8
PANEL_SLOT
10
75
20
-131.503811
11
-75
21
-131.503811
0
LINE
8
PANEL_SLOT
10
-75
20
-131.503811
11
-75
21
-128.303811
0
LINE
8
CENTERLINE
10
0
20
0
11
-0
21
-129.903811
0
TEXT
8
LABEL
10
-0
20
-136.399001
40
5
1
FACE 5
50
0
0
LINE
8
PANEL_SLOT
10
73.614359
20
-129.103811
11
148.614359
21
0.8
0
LINE
8
PANEL_SLOT
10
148.614359
20
0.8
11
151.385641
21
-0.8
0
LINE
8
PANEL_SLOT
10
151.385641
20
-0.8
11
76.385641
21
-130.703811
0
LINE
8
PANEL_SLOT
10
76.385641
20
-130.703811
11
73.614359
21
-129.103811
0
LINE
8
CENTERLINE
10
0
20
0
11
112.5
21
-64.951905
0
TEXT
8
LABEL
10
118.125
20
-68.199501
40
5
1
FACE 6
50
0
0
TEXT
8
LABEL
10
-58
20
-8
40
4
1
Top-view fixture concept: 150 mm sides, 60 deg face spacing
50
0
0
TEXT
8
LABEL
10
-42
20
-16
40
4
1
Panel slot guide thickness: 3.2 mm
50
0
0
ENDSEC
0
EOF
